G04 #@! TF.GenerationSoftware,KiCad,Pcbnew,5.0.1+dfsg1-2*
G04 #@! TF.CreationDate,2018-12-02T20:23:19+01:00*
G04 #@! TF.ProjectId,rj45-sk6812-adapter,726A34352D736B363831322D61646170,rev?*
G04 #@! TF.SameCoordinates,Original*
G04 #@! TF.FileFunction,Soldermask,Top*
G04 #@! TF.FilePolarity,Negative*
%FSLAX46Y46*%
G04 Gerber Fmt 4.6, Leading zero omitted, Abs format (unit mm)*
G04 Created by KiCad (PCBNEW 5.0.1+dfsg1-2) date So 02 Dez 2018 20:23:19 CET*
%MOMM*%
%LPD*%
G01*
G04 APERTURE LIST*
%ADD10C,0.100000*%
G04 APERTURE END LIST*
D10*
G36*
X160263210Y-99923489D02*
X160349949Y-99949802D01*
X160429891Y-99992532D01*
X160499963Y-100050037D01*
X160557468Y-100120109D01*
X160600198Y-100200051D01*
X160626511Y-100286790D01*
X160636000Y-100383140D01*
X160636000Y-101546860D01*
X160626511Y-101643210D01*
X160600198Y-101729949D01*
X160557468Y-101809891D01*
X160499963Y-101879963D01*
X160429891Y-101937468D01*
X160349949Y-101980198D01*
X160263210Y-102006511D01*
X160166860Y-102016000D01*
X158603140Y-102016000D01*
X158506790Y-102006511D01*
X158420051Y-101980198D01*
X158340109Y-101937468D01*
X158270037Y-101879963D01*
X158212532Y-101809891D01*
X158169802Y-101729949D01*
X158143489Y-101643210D01*
X158134000Y-101546860D01*
X158134000Y-100383140D01*
X158143489Y-100286790D01*
X158169802Y-100200051D01*
X158212532Y-100120109D01*
X158270037Y-100050037D01*
X158340109Y-99992532D01*
X158420051Y-99949802D01*
X158506790Y-99923489D01*
X158603140Y-99914000D01*
X160166860Y-99914000D01*
X160263210Y-99923489D01*
X160263210Y-99923489D01*
G37*
G36*
X129783210Y-99923489D02*
X129869949Y-99949802D01*
X129949891Y-99992532D01*
X130019963Y-100050037D01*
X130077468Y-100120109D01*
X130120198Y-100200051D01*
X130146511Y-100286790D01*
X130156000Y-100383140D01*
X130156000Y-101546860D01*
X130146511Y-101643210D01*
X130120198Y-101729949D01*
X130077468Y-101809891D01*
X130019963Y-101879963D01*
X129949891Y-101937468D01*
X129869949Y-101980198D01*
X129783210Y-102006511D01*
X129686860Y-102016000D01*
X128123140Y-102016000D01*
X128026790Y-102006511D01*
X127940051Y-101980198D01*
X127860109Y-101937468D01*
X127790037Y-101879963D01*
X127732532Y-101809891D01*
X127689802Y-101729949D01*
X127663489Y-101643210D01*
X127654000Y-101546860D01*
X127654000Y-100383140D01*
X127663489Y-100286790D01*
X127689802Y-100200051D01*
X127732532Y-100120109D01*
X127790037Y-100050037D01*
X127860109Y-99992532D01*
X127940051Y-99949802D01*
X128026790Y-99923489D01*
X128123140Y-99914000D01*
X129686860Y-99914000D01*
X129783210Y-99923489D01*
X129783210Y-99923489D01*
G37*
G36*
X138878903Y-96168213D02*
X139101177Y-96212426D01*
X139519932Y-96385880D01*
X139896802Y-96637696D01*
X140217304Y-96958198D01*
X140469120Y-97335068D01*
X140642574Y-97753823D01*
X140731000Y-98198371D01*
X140731000Y-98651629D01*
X140642574Y-99096177D01*
X140469120Y-99514932D01*
X140217304Y-99891802D01*
X139896802Y-100212304D01*
X139519932Y-100464120D01*
X139101177Y-100637574D01*
X138878903Y-100681787D01*
X138656630Y-100726000D01*
X138203370Y-100726000D01*
X137981097Y-100681787D01*
X137758823Y-100637574D01*
X137340068Y-100464120D01*
X136963198Y-100212304D01*
X136642696Y-99891802D01*
X136390880Y-99514932D01*
X136217426Y-99096177D01*
X136129000Y-98651629D01*
X136129000Y-98198371D01*
X136217426Y-97753823D01*
X136390880Y-97335068D01*
X136642696Y-96958198D01*
X136963198Y-96637696D01*
X137340068Y-96385880D01*
X137758823Y-96212426D01*
X137981097Y-96168213D01*
X138203370Y-96124000D01*
X138656630Y-96124000D01*
X138878903Y-96168213D01*
X138878903Y-96168213D01*
G37*
G36*
X150847527Y-97548736D02*
X150947410Y-97568604D01*
X151229674Y-97685521D01*
X151483705Y-97855259D01*
X151699741Y-98071295D01*
X151869479Y-98325326D01*
X151986396Y-98607590D01*
X152046000Y-98907240D01*
X152046000Y-99212760D01*
X151986396Y-99512410D01*
X151869479Y-99794674D01*
X151699741Y-100048705D01*
X151483705Y-100264741D01*
X151229674Y-100434479D01*
X150947410Y-100551396D01*
X150847527Y-100571264D01*
X150647762Y-100611000D01*
X150342238Y-100611000D01*
X150142473Y-100571264D01*
X150042590Y-100551396D01*
X149760326Y-100434479D01*
X149506295Y-100264741D01*
X149290259Y-100048705D01*
X149120521Y-99794674D01*
X149003604Y-99512410D01*
X148944000Y-99212760D01*
X148944000Y-98907240D01*
X149003604Y-98607590D01*
X149120521Y-98325326D01*
X149290259Y-98071295D01*
X149506295Y-97855259D01*
X149760326Y-97685521D01*
X150042590Y-97568604D01*
X150142473Y-97548736D01*
X150342238Y-97509000D01*
X150647762Y-97509000D01*
X150847527Y-97548736D01*
X150847527Y-97548736D01*
G37*
G36*
X146966000Y-100611000D02*
X143864000Y-100611000D01*
X143864000Y-97509000D01*
X146966000Y-97509000D01*
X146966000Y-100611000D01*
X146966000Y-100611000D01*
G37*
G36*
X160263210Y-97383489D02*
X160349949Y-97409802D01*
X160429891Y-97452532D01*
X160499963Y-97510037D01*
X160557468Y-97580109D01*
X160600198Y-97660051D01*
X160626511Y-97746790D01*
X160636000Y-97843140D01*
X160636000Y-99006860D01*
X160626511Y-99103210D01*
X160600198Y-99189949D01*
X160557468Y-99269891D01*
X160499963Y-99339963D01*
X160429891Y-99397468D01*
X160349949Y-99440198D01*
X160263210Y-99466511D01*
X160166860Y-99476000D01*
X158603140Y-99476000D01*
X158506790Y-99466511D01*
X158420051Y-99440198D01*
X158340109Y-99397468D01*
X158270037Y-99339963D01*
X158212532Y-99269891D01*
X158169802Y-99189949D01*
X158143489Y-99103210D01*
X158134000Y-99006860D01*
X158134000Y-97843140D01*
X158143489Y-97746790D01*
X158169802Y-97660051D01*
X158212532Y-97580109D01*
X158270037Y-97510037D01*
X158340109Y-97452532D01*
X158420051Y-97409802D01*
X158506790Y-97383489D01*
X158603140Y-97374000D01*
X160166860Y-97374000D01*
X160263210Y-97383489D01*
X160263210Y-97383489D01*
G37*
G36*
X129783210Y-97383489D02*
X129869949Y-97409802D01*
X129949891Y-97452532D01*
X130019963Y-97510037D01*
X130077468Y-97580109D01*
X130120198Y-97660051D01*
X130146511Y-97746790D01*
X130156000Y-97843140D01*
X130156000Y-99006860D01*
X130146511Y-99103210D01*
X130120198Y-99189949D01*
X130077468Y-99269891D01*
X130019963Y-99339963D01*
X129949891Y-99397468D01*
X129869949Y-99440198D01*
X129783210Y-99466511D01*
X129686860Y-99476000D01*
X128123140Y-99476000D01*
X128026790Y-99466511D01*
X127940051Y-99440198D01*
X127860109Y-99397468D01*
X127790037Y-99339963D01*
X127732532Y-99269891D01*
X127689802Y-99189949D01*
X127663489Y-99103210D01*
X127654000Y-99006860D01*
X127654000Y-97843140D01*
X127663489Y-97746790D01*
X127689802Y-97660051D01*
X127732532Y-97580109D01*
X127790037Y-97510037D01*
X127860109Y-97452532D01*
X127940051Y-97409802D01*
X128026790Y-97383489D01*
X128123140Y-97374000D01*
X129686860Y-97374000D01*
X129783210Y-97383489D01*
X129783210Y-97383489D01*
G37*
G36*
X160263210Y-94843489D02*
X160349949Y-94869802D01*
X160429891Y-94912532D01*
X160499963Y-94970037D01*
X160557468Y-95040109D01*
X160600198Y-95120051D01*
X160626511Y-95206790D01*
X160636000Y-95303140D01*
X160636000Y-96466860D01*
X160626511Y-96563210D01*
X160600198Y-96649949D01*
X160557468Y-96729891D01*
X160499963Y-96799963D01*
X160429891Y-96857468D01*
X160349949Y-96900198D01*
X160263210Y-96926511D01*
X160166860Y-96936000D01*
X158603140Y-96936000D01*
X158506790Y-96926511D01*
X158420051Y-96900198D01*
X158340109Y-96857468D01*
X158270037Y-96799963D01*
X158212532Y-96729891D01*
X158169802Y-96649949D01*
X158143489Y-96563210D01*
X158134000Y-96466860D01*
X158134000Y-95303140D01*
X158143489Y-95206790D01*
X158169802Y-95120051D01*
X158212532Y-95040109D01*
X158270037Y-94970037D01*
X158340109Y-94912532D01*
X158420051Y-94869802D01*
X158506790Y-94843489D01*
X158603140Y-94834000D01*
X160166860Y-94834000D01*
X160263210Y-94843489D01*
X160263210Y-94843489D01*
G37*
G36*
X129783210Y-94843489D02*
X129869949Y-94869802D01*
X129949891Y-94912532D01*
X130019963Y-94970037D01*
X130077468Y-95040109D01*
X130120198Y-95120051D01*
X130146511Y-95206790D01*
X130156000Y-95303140D01*
X130156000Y-96466860D01*
X130146511Y-96563210D01*
X130120198Y-96649949D01*
X130077468Y-96729891D01*
X130019963Y-96799963D01*
X129949891Y-96857468D01*
X129869949Y-96900198D01*
X129783210Y-96926511D01*
X129686860Y-96936000D01*
X128123140Y-96936000D01*
X128026790Y-96926511D01*
X127940051Y-96900198D01*
X127860109Y-96857468D01*
X127790037Y-96799963D01*
X127732532Y-96729891D01*
X127689802Y-96649949D01*
X127663489Y-96563210D01*
X127654000Y-96466860D01*
X127654000Y-95303140D01*
X127663489Y-95206790D01*
X127689802Y-95120051D01*
X127732532Y-95040109D01*
X127790037Y-94970037D01*
X127860109Y-94912532D01*
X127940051Y-94869802D01*
X128026790Y-94843489D01*
X128123140Y-94834000D01*
X129686860Y-94834000D01*
X129783210Y-94843489D01*
X129783210Y-94843489D01*
G37*
G36*
X146483000Y-94111000D02*
X142881000Y-94111000D01*
X142881000Y-91309000D01*
X146483000Y-91309000D01*
X146483000Y-94111000D01*
X146483000Y-94111000D01*
G37*
G36*
X153283000Y-94111000D02*
X149681000Y-94111000D01*
X149681000Y-91309000D01*
X153283000Y-91309000D01*
X153283000Y-94111000D01*
X153283000Y-94111000D01*
G37*
G36*
X139918677Y-90439465D02*
X139956364Y-90450898D01*
X139991103Y-90469466D01*
X140021548Y-90494452D01*
X140046534Y-90524897D01*
X140065102Y-90559636D01*
X140076535Y-90597323D01*
X140081000Y-90642661D01*
X140081000Y-91729339D01*
X140076535Y-91774677D01*
X140065102Y-91812364D01*
X140046534Y-91847103D01*
X140021548Y-91877548D01*
X139991103Y-91902534D01*
X139956364Y-91921102D01*
X139918677Y-91932535D01*
X139873339Y-91937000D01*
X139036661Y-91937000D01*
X138991323Y-91932535D01*
X138953636Y-91921102D01*
X138918897Y-91902534D01*
X138888452Y-91877548D01*
X138863466Y-91847103D01*
X138844898Y-91812364D01*
X138833465Y-91774677D01*
X138829000Y-91729339D01*
X138829000Y-90642661D01*
X138833465Y-90597323D01*
X138844898Y-90559636D01*
X138863466Y-90524897D01*
X138888452Y-90494452D01*
X138918897Y-90469466D01*
X138953636Y-90450898D01*
X138991323Y-90439465D01*
X139036661Y-90435000D01*
X139873339Y-90435000D01*
X139918677Y-90439465D01*
X139918677Y-90439465D01*
G37*
G36*
X137868677Y-90439465D02*
X137906364Y-90450898D01*
X137941103Y-90469466D01*
X137971548Y-90494452D01*
X137996534Y-90524897D01*
X138015102Y-90559636D01*
X138026535Y-90597323D01*
X138031000Y-90642661D01*
X138031000Y-91729339D01*
X138026535Y-91774677D01*
X138015102Y-91812364D01*
X137996534Y-91847103D01*
X137971548Y-91877548D01*
X137941103Y-91902534D01*
X137906364Y-91921102D01*
X137868677Y-91932535D01*
X137823339Y-91937000D01*
X136986661Y-91937000D01*
X136941323Y-91932535D01*
X136903636Y-91921102D01*
X136868897Y-91902534D01*
X136838452Y-91877548D01*
X136813466Y-91847103D01*
X136794898Y-91812364D01*
X136783465Y-91774677D01*
X136779000Y-91729339D01*
X136779000Y-90642661D01*
X136783465Y-90597323D01*
X136794898Y-90559636D01*
X136813466Y-90524897D01*
X136838452Y-90494452D01*
X136868897Y-90469466D01*
X136903636Y-90450898D01*
X136941323Y-90439465D01*
X136986661Y-90435000D01*
X137823339Y-90435000D01*
X137868677Y-90439465D01*
X137868677Y-90439465D01*
G37*
G36*
X146384677Y-89176465D02*
X146422364Y-89187898D01*
X146457103Y-89206466D01*
X146487548Y-89231452D01*
X146512534Y-89261897D01*
X146531102Y-89296636D01*
X146542535Y-89334323D01*
X146547000Y-89379661D01*
X146547000Y-90216339D01*
X146542535Y-90261677D01*
X146531102Y-90299364D01*
X146512534Y-90334103D01*
X146487548Y-90364548D01*
X146457103Y-90389534D01*
X146422364Y-90408102D01*
X146384677Y-90419535D01*
X146339339Y-90424000D01*
X145252661Y-90424000D01*
X145207323Y-90419535D01*
X145169636Y-90408102D01*
X145134897Y-90389534D01*
X145104452Y-90364548D01*
X145079466Y-90334103D01*
X145060898Y-90299364D01*
X145049465Y-90261677D01*
X145045000Y-90216339D01*
X145045000Y-89379661D01*
X145049465Y-89334323D01*
X145060898Y-89296636D01*
X145079466Y-89261897D01*
X145104452Y-89231452D01*
X145134897Y-89206466D01*
X145169636Y-89187898D01*
X145207323Y-89176465D01*
X145252661Y-89172000D01*
X146339339Y-89172000D01*
X146384677Y-89176465D01*
X146384677Y-89176465D01*
G37*
G36*
X154639677Y-89176465D02*
X154677364Y-89187898D01*
X154712103Y-89206466D01*
X154742548Y-89231452D01*
X154767534Y-89261897D01*
X154786102Y-89296636D01*
X154797535Y-89334323D01*
X154802000Y-89379661D01*
X154802000Y-90216339D01*
X154797535Y-90261677D01*
X154786102Y-90299364D01*
X154767534Y-90334103D01*
X154742548Y-90364548D01*
X154712103Y-90389534D01*
X154677364Y-90408102D01*
X154639677Y-90419535D01*
X154594339Y-90424000D01*
X153507661Y-90424000D01*
X153462323Y-90419535D01*
X153424636Y-90408102D01*
X153389897Y-90389534D01*
X153359452Y-90364548D01*
X153334466Y-90334103D01*
X153315898Y-90299364D01*
X153304465Y-90261677D01*
X153300000Y-90216339D01*
X153300000Y-89379661D01*
X153304465Y-89334323D01*
X153315898Y-89296636D01*
X153334466Y-89261897D01*
X153359452Y-89231452D01*
X153389897Y-89206466D01*
X153424636Y-89187898D01*
X153462323Y-89176465D01*
X153507661Y-89172000D01*
X154594339Y-89172000D01*
X154639677Y-89176465D01*
X154639677Y-89176465D01*
G37*
G36*
X135947635Y-87409019D02*
X136128903Y-87445075D01*
X136356571Y-87539378D01*
X136556337Y-87672858D01*
X136561469Y-87676287D01*
X136735713Y-87850531D01*
X136735715Y-87850534D01*
X136872622Y-88055429D01*
X136966925Y-88283097D01*
X137015000Y-88524787D01*
X137015000Y-88771213D01*
X136966925Y-89012903D01*
X136872622Y-89240571D01*
X136772058Y-89391075D01*
X136735713Y-89445469D01*
X136561469Y-89619713D01*
X136561466Y-89619715D01*
X136356571Y-89756622D01*
X136128903Y-89850925D01*
X135947635Y-89886981D01*
X135887214Y-89899000D01*
X135640786Y-89899000D01*
X135580365Y-89886981D01*
X135399097Y-89850925D01*
X135171429Y-89756622D01*
X134966534Y-89619715D01*
X134966531Y-89619713D01*
X134792287Y-89445469D01*
X134755942Y-89391075D01*
X134655378Y-89240571D01*
X134561075Y-89012903D01*
X134513000Y-88771213D01*
X134513000Y-88524787D01*
X134561075Y-88283097D01*
X134655378Y-88055429D01*
X134792285Y-87850534D01*
X134792287Y-87850531D01*
X134966531Y-87676287D01*
X134971663Y-87672858D01*
X135171429Y-87539378D01*
X135399097Y-87445075D01*
X135580365Y-87409019D01*
X135640786Y-87397000D01*
X135887214Y-87397000D01*
X135947635Y-87409019D01*
X135947635Y-87409019D01*
G37*
G36*
X151369915Y-87345334D02*
X151478491Y-87378271D01*
X151578556Y-87431756D01*
X151666264Y-87503736D01*
X151738244Y-87591443D01*
X151791729Y-87691508D01*
X151824666Y-87800084D01*
X151833000Y-87884702D01*
X151833000Y-88391297D01*
X151824666Y-88475916D01*
X151791729Y-88584492D01*
X151738244Y-88684557D01*
X151666264Y-88772264D01*
X151578557Y-88844244D01*
X151478492Y-88897729D01*
X151369916Y-88930666D01*
X151257000Y-88941787D01*
X151144085Y-88930666D01*
X151035509Y-88897729D01*
X150935444Y-88844244D01*
X150847737Y-88772264D01*
X150775757Y-88684557D01*
X150767442Y-88669000D01*
X150732240Y-88603143D01*
X150718627Y-88582768D01*
X150701299Y-88565441D01*
X150680925Y-88551827D01*
X150658286Y-88542450D01*
X150634253Y-88537669D01*
X150609748Y-88537669D01*
X150585715Y-88542449D01*
X150563076Y-88551827D01*
X150542701Y-88565440D01*
X150525374Y-88582768D01*
X150511760Y-88603143D01*
X150468244Y-88684557D01*
X150396264Y-88772264D01*
X150308557Y-88844244D01*
X150208492Y-88897729D01*
X150099916Y-88930666D01*
X149987000Y-88941787D01*
X149874085Y-88930666D01*
X149765509Y-88897729D01*
X149665444Y-88844244D01*
X149577737Y-88772264D01*
X149514626Y-88695364D01*
X149497299Y-88678036D01*
X149476924Y-88664423D01*
X149454285Y-88655045D01*
X149430252Y-88650265D01*
X149405748Y-88650265D01*
X149381714Y-88655046D01*
X149359075Y-88664423D01*
X149338701Y-88678037D01*
X149321373Y-88695364D01*
X149307760Y-88715739D01*
X149298382Y-88738378D01*
X149293000Y-88774663D01*
X149293000Y-88939000D01*
X148141000Y-88939000D01*
X148141000Y-87337000D01*
X149293000Y-87337000D01*
X149293000Y-87501337D01*
X149295402Y-87525723D01*
X149302515Y-87549172D01*
X149314066Y-87570783D01*
X149329612Y-87589725D01*
X149348554Y-87605271D01*
X149370165Y-87616822D01*
X149393614Y-87623935D01*
X149418000Y-87626337D01*
X149442386Y-87623935D01*
X149465835Y-87616822D01*
X149487446Y-87605271D01*
X149514626Y-87580636D01*
X149548485Y-87539379D01*
X149577736Y-87503736D01*
X149665443Y-87431756D01*
X149765508Y-87378271D01*
X149874084Y-87345334D01*
X149987000Y-87334213D01*
X150099915Y-87345334D01*
X150208491Y-87378271D01*
X150308556Y-87431756D01*
X150396264Y-87503736D01*
X150468244Y-87591443D01*
X150511767Y-87672869D01*
X150525373Y-87693232D01*
X150542700Y-87710560D01*
X150563075Y-87724174D01*
X150585713Y-87733551D01*
X150609747Y-87738332D01*
X150634251Y-87738332D01*
X150658285Y-87733552D01*
X150680924Y-87724175D01*
X150701298Y-87710561D01*
X150718626Y-87693234D01*
X150732240Y-87672858D01*
X150775756Y-87591444D01*
X150818485Y-87539379D01*
X150847736Y-87503736D01*
X150935443Y-87431756D01*
X151035508Y-87378271D01*
X151144084Y-87345334D01*
X151257000Y-87334213D01*
X151369915Y-87345334D01*
X151369915Y-87345334D01*
G37*
G36*
X132859331Y-85136211D02*
X133187092Y-85271974D01*
X133482073Y-85469074D01*
X133732926Y-85719927D01*
X133930026Y-86014908D01*
X134065789Y-86342669D01*
X134135000Y-86690616D01*
X134135000Y-87045384D01*
X134065789Y-87393331D01*
X133930026Y-87721092D01*
X133732926Y-88016073D01*
X133482073Y-88266926D01*
X133187092Y-88464026D01*
X132859331Y-88599789D01*
X132511384Y-88669000D01*
X132156616Y-88669000D01*
X131808669Y-88599789D01*
X131480908Y-88464026D01*
X131185927Y-88266926D01*
X130935074Y-88016073D01*
X130737974Y-87721092D01*
X130602211Y-87393331D01*
X130533000Y-87045384D01*
X130533000Y-86690616D01*
X130602211Y-86342669D01*
X130737974Y-86014908D01*
X130935074Y-85719927D01*
X131185927Y-85469074D01*
X131480908Y-85271974D01*
X131808669Y-85136211D01*
X132156616Y-85067000D01*
X132511384Y-85067000D01*
X132859331Y-85136211D01*
X132859331Y-85136211D01*
G37*
G36*
X154639677Y-87126465D02*
X154677364Y-87137898D01*
X154712103Y-87156466D01*
X154742548Y-87181452D01*
X154767534Y-87211897D01*
X154786102Y-87246636D01*
X154797535Y-87284323D01*
X154802000Y-87329661D01*
X154802000Y-88166339D01*
X154797535Y-88211677D01*
X154786102Y-88249364D01*
X154767534Y-88284103D01*
X154742548Y-88314548D01*
X154712103Y-88339534D01*
X154677364Y-88358102D01*
X154639677Y-88369535D01*
X154594339Y-88374000D01*
X153507661Y-88374000D01*
X153462323Y-88369535D01*
X153424636Y-88358102D01*
X153389897Y-88339534D01*
X153359452Y-88314548D01*
X153334466Y-88284103D01*
X153315898Y-88249364D01*
X153304465Y-88211677D01*
X153300000Y-88166339D01*
X153300000Y-87329661D01*
X153304465Y-87284323D01*
X153315898Y-87246636D01*
X153334466Y-87211897D01*
X153359452Y-87181452D01*
X153389897Y-87156466D01*
X153424636Y-87137898D01*
X153462323Y-87126465D01*
X153507661Y-87122000D01*
X154594339Y-87122000D01*
X154639677Y-87126465D01*
X154639677Y-87126465D01*
G37*
G36*
X146384677Y-87126465D02*
X146422364Y-87137898D01*
X146457103Y-87156466D01*
X146487548Y-87181452D01*
X146512534Y-87211897D01*
X146531102Y-87246636D01*
X146542535Y-87284323D01*
X146547000Y-87329661D01*
X146547000Y-88166339D01*
X146542535Y-88211677D01*
X146531102Y-88249364D01*
X146512534Y-88284103D01*
X146487548Y-88314548D01*
X146457103Y-88339534D01*
X146422364Y-88358102D01*
X146384677Y-88369535D01*
X146339339Y-88374000D01*
X145252661Y-88374000D01*
X145207323Y-88369535D01*
X145169636Y-88358102D01*
X145134897Y-88339534D01*
X145104452Y-88314548D01*
X145079466Y-88284103D01*
X145060898Y-88249364D01*
X145049465Y-88211677D01*
X145045000Y-88166339D01*
X145045000Y-87329661D01*
X145049465Y-87284323D01*
X145060898Y-87246636D01*
X145079466Y-87211897D01*
X145104452Y-87181452D01*
X145134897Y-87156466D01*
X145169636Y-87137898D01*
X145207323Y-87126465D01*
X145252661Y-87122000D01*
X146339339Y-87122000D01*
X146384677Y-87126465D01*
X146384677Y-87126465D01*
G37*
G36*
X141722228Y-86559703D02*
X141877100Y-86623853D01*
X142016481Y-86716985D01*
X142135015Y-86835519D01*
X142228147Y-86974900D01*
X142292297Y-87129772D01*
X142325000Y-87294184D01*
X142325000Y-87461816D01*
X142292297Y-87626228D01*
X142228147Y-87781100D01*
X142135015Y-87920481D01*
X142016481Y-88039015D01*
X141877100Y-88132147D01*
X141722228Y-88196297D01*
X141557816Y-88229000D01*
X141390184Y-88229000D01*
X141225772Y-88196297D01*
X141070900Y-88132147D01*
X140931519Y-88039015D01*
X140812985Y-87920481D01*
X140719853Y-87781100D01*
X140655703Y-87626228D01*
X140623000Y-87461816D01*
X140623000Y-87294184D01*
X140655703Y-87129772D01*
X140719853Y-86974900D01*
X140812985Y-86835519D01*
X140931519Y-86716985D01*
X141070900Y-86623853D01*
X141225772Y-86559703D01*
X141390184Y-86527000D01*
X141557816Y-86527000D01*
X141722228Y-86559703D01*
X141722228Y-86559703D01*
G37*
G36*
X157746000Y-85991000D02*
X155944000Y-85991000D01*
X155944000Y-84189000D01*
X157746000Y-84189000D01*
X157746000Y-85991000D01*
X157746000Y-85991000D01*
G37*
G36*
X141722228Y-84269703D02*
X141877100Y-84333853D01*
X142016481Y-84426985D01*
X142135015Y-84545519D01*
X142228147Y-84684900D01*
X142292297Y-84839772D01*
X142325000Y-85004184D01*
X142325000Y-85171816D01*
X142292297Y-85336228D01*
X142228147Y-85491100D01*
X142135015Y-85630481D01*
X142016481Y-85749015D01*
X141877100Y-85842147D01*
X141722228Y-85906297D01*
X141557816Y-85939000D01*
X141390184Y-85939000D01*
X141225772Y-85906297D01*
X141070900Y-85842147D01*
X140931519Y-85749015D01*
X140812985Y-85630481D01*
X140719853Y-85491100D01*
X140655703Y-85336228D01*
X140623000Y-85171816D01*
X140623000Y-85004184D01*
X140655703Y-84839772D01*
X140719853Y-84684900D01*
X140812985Y-84545519D01*
X140931519Y-84426985D01*
X141070900Y-84333853D01*
X141225772Y-84269703D01*
X141390184Y-84237000D01*
X141557816Y-84237000D01*
X141722228Y-84269703D01*
X141722228Y-84269703D01*
G37*
G36*
X135122228Y-83244703D02*
X135277100Y-83308853D01*
X135416481Y-83401985D01*
X135535015Y-83520519D01*
X135628147Y-83659900D01*
X135692297Y-83814772D01*
X135725000Y-83979184D01*
X135725000Y-84146816D01*
X135692297Y-84311228D01*
X135628147Y-84466100D01*
X135535015Y-84605481D01*
X135416481Y-84724015D01*
X135277100Y-84817147D01*
X135122228Y-84881297D01*
X134957816Y-84914000D01*
X134790184Y-84914000D01*
X134625772Y-84881297D01*
X134470900Y-84817147D01*
X134331519Y-84724015D01*
X134212985Y-84605481D01*
X134119853Y-84466100D01*
X134055703Y-84311228D01*
X134023000Y-84146816D01*
X134023000Y-83979184D01*
X134055703Y-83814772D01*
X134119853Y-83659900D01*
X134212985Y-83520519D01*
X134331519Y-83401985D01*
X134470900Y-83308853D01*
X134625772Y-83244703D01*
X134790184Y-83212000D01*
X134957816Y-83212000D01*
X135122228Y-83244703D01*
X135122228Y-83244703D01*
G37*
G36*
X136902228Y-82229703D02*
X137057100Y-82293853D01*
X137196481Y-82386985D01*
X137315015Y-82505519D01*
X137408147Y-82644900D01*
X137472297Y-82799772D01*
X137505000Y-82964184D01*
X137505000Y-83131816D01*
X137472297Y-83296228D01*
X137408147Y-83451100D01*
X137315015Y-83590481D01*
X137196481Y-83709015D01*
X137057100Y-83802147D01*
X136902228Y-83866297D01*
X136737816Y-83899000D01*
X136570184Y-83899000D01*
X136405772Y-83866297D01*
X136250900Y-83802147D01*
X136111519Y-83709015D01*
X135992985Y-83590481D01*
X135899853Y-83451100D01*
X135835703Y-83296228D01*
X135803000Y-83131816D01*
X135803000Y-82964184D01*
X135835703Y-82799772D01*
X135899853Y-82644900D01*
X135992985Y-82505519D01*
X136111519Y-82386985D01*
X136250900Y-82293853D01*
X136405772Y-82229703D01*
X136570184Y-82197000D01*
X136737816Y-82197000D01*
X136902228Y-82229703D01*
X136902228Y-82229703D01*
G37*
G36*
X156955443Y-81655519D02*
X157021627Y-81662037D01*
X157134853Y-81696384D01*
X157191467Y-81713557D01*
X157324699Y-81784772D01*
X157347991Y-81797222D01*
X157383729Y-81826552D01*
X157485186Y-81909814D01*
X157568448Y-82011271D01*
X157597778Y-82047009D01*
X157597779Y-82047011D01*
X157681443Y-82203533D01*
X157681443Y-82203534D01*
X157732963Y-82373373D01*
X157750359Y-82550000D01*
X157732963Y-82726627D01*
X157714605Y-82787146D01*
X157681443Y-82896467D01*
X157645247Y-82964184D01*
X157597778Y-83052991D01*
X157568448Y-83088729D01*
X157485186Y-83190186D01*
X157383729Y-83273448D01*
X157347991Y-83302778D01*
X157347989Y-83302779D01*
X157191467Y-83386443D01*
X157134853Y-83403616D01*
X157021627Y-83437963D01*
X156955443Y-83444481D01*
X156889260Y-83451000D01*
X156800740Y-83451000D01*
X156734557Y-83444481D01*
X156668373Y-83437963D01*
X156555147Y-83403616D01*
X156498533Y-83386443D01*
X156342011Y-83302779D01*
X156342009Y-83302778D01*
X156306271Y-83273448D01*
X156204814Y-83190186D01*
X156121552Y-83088729D01*
X156092222Y-83052991D01*
X156044753Y-82964184D01*
X156008557Y-82896467D01*
X155975395Y-82787146D01*
X155957037Y-82726627D01*
X155939641Y-82550000D01*
X155957037Y-82373373D01*
X156008557Y-82203534D01*
X156008557Y-82203533D01*
X156092221Y-82047011D01*
X156092222Y-82047009D01*
X156121552Y-82011271D01*
X156204814Y-81909814D01*
X156306271Y-81826552D01*
X156342009Y-81797222D01*
X156365301Y-81784772D01*
X156498533Y-81713557D01*
X156555147Y-81696384D01*
X156668373Y-81662037D01*
X156734557Y-81655519D01*
X156800740Y-81649000D01*
X156889260Y-81649000D01*
X156955443Y-81655519D01*
X156955443Y-81655519D01*
G37*
G36*
X135122228Y-81214703D02*
X135277100Y-81278853D01*
X135416481Y-81371985D01*
X135535015Y-81490519D01*
X135628147Y-81629900D01*
X135692297Y-81784772D01*
X135725000Y-81949184D01*
X135725000Y-82116816D01*
X135692297Y-82281228D01*
X135628147Y-82436100D01*
X135535015Y-82575481D01*
X135416481Y-82694015D01*
X135277100Y-82787147D01*
X135122228Y-82851297D01*
X134957816Y-82884000D01*
X134790184Y-82884000D01*
X134625772Y-82851297D01*
X134470900Y-82787147D01*
X134331519Y-82694015D01*
X134212985Y-82575481D01*
X134119853Y-82436100D01*
X134055703Y-82281228D01*
X134023000Y-82116816D01*
X134023000Y-81949184D01*
X134055703Y-81784772D01*
X134119853Y-81629900D01*
X134212985Y-81490519D01*
X134331519Y-81371985D01*
X134470900Y-81278853D01*
X134625772Y-81214703D01*
X134790184Y-81182000D01*
X134957816Y-81182000D01*
X135122228Y-81214703D01*
X135122228Y-81214703D01*
G37*
G36*
X136902228Y-80199703D02*
X137057100Y-80263853D01*
X137196481Y-80356985D01*
X137315015Y-80475519D01*
X137408147Y-80614900D01*
X137472297Y-80769772D01*
X137505000Y-80934184D01*
X137505000Y-81101816D01*
X137472297Y-81266228D01*
X137408147Y-81421100D01*
X137315015Y-81560481D01*
X137196481Y-81679015D01*
X137057100Y-81772147D01*
X136902228Y-81836297D01*
X136737816Y-81869000D01*
X136570184Y-81869000D01*
X136405772Y-81836297D01*
X136250900Y-81772147D01*
X136111519Y-81679015D01*
X135992985Y-81560481D01*
X135899853Y-81421100D01*
X135835703Y-81266228D01*
X135803000Y-81101816D01*
X135803000Y-80934184D01*
X135835703Y-80769772D01*
X135899853Y-80614900D01*
X135992985Y-80475519D01*
X136111519Y-80356985D01*
X136250900Y-80263853D01*
X136405772Y-80199703D01*
X136570184Y-80167000D01*
X136737816Y-80167000D01*
X136902228Y-80199703D01*
X136902228Y-80199703D01*
G37*
G36*
X156955443Y-79115519D02*
X157021627Y-79122037D01*
X157120402Y-79152000D01*
X157191467Y-79173557D01*
X157308714Y-79236228D01*
X157347991Y-79257222D01*
X157383729Y-79286552D01*
X157485186Y-79369814D01*
X157568448Y-79471271D01*
X157597778Y-79507009D01*
X157597779Y-79507011D01*
X157681443Y-79663533D01*
X157681443Y-79663534D01*
X157732963Y-79833373D01*
X157750359Y-80010000D01*
X157732963Y-80186627D01*
X157709537Y-80263853D01*
X157681443Y-80356467D01*
X157654913Y-80406100D01*
X157597778Y-80512991D01*
X157571114Y-80545481D01*
X157485186Y-80650186D01*
X157383729Y-80733448D01*
X157347991Y-80762778D01*
X157347989Y-80762779D01*
X157191467Y-80846443D01*
X157166554Y-80854000D01*
X157021627Y-80897963D01*
X156955442Y-80904482D01*
X156889260Y-80911000D01*
X156800740Y-80911000D01*
X156734558Y-80904482D01*
X156668373Y-80897963D01*
X156523446Y-80854000D01*
X156498533Y-80846443D01*
X156342011Y-80762779D01*
X156342009Y-80762778D01*
X156306271Y-80733448D01*
X156204814Y-80650186D01*
X156118886Y-80545481D01*
X156092222Y-80512991D01*
X156035087Y-80406100D01*
X156008557Y-80356467D01*
X155980463Y-80263853D01*
X155957037Y-80186627D01*
X155939641Y-80010000D01*
X155957037Y-79833373D01*
X156008557Y-79663534D01*
X156008557Y-79663533D01*
X156092221Y-79507011D01*
X156092222Y-79507009D01*
X156121552Y-79471271D01*
X156204814Y-79369814D01*
X156306271Y-79286552D01*
X156342009Y-79257222D01*
X156381286Y-79236228D01*
X156498533Y-79173557D01*
X156569598Y-79152000D01*
X156668373Y-79122037D01*
X156734557Y-79115519D01*
X156800740Y-79109000D01*
X156889260Y-79109000D01*
X156955443Y-79115519D01*
X156955443Y-79115519D01*
G37*
G36*
X135122228Y-79184703D02*
X135277100Y-79248853D01*
X135416481Y-79341985D01*
X135535015Y-79460519D01*
X135628147Y-79599900D01*
X135692297Y-79754772D01*
X135725000Y-79919184D01*
X135725000Y-80086816D01*
X135692297Y-80251228D01*
X135628147Y-80406100D01*
X135535015Y-80545481D01*
X135416481Y-80664015D01*
X135277100Y-80757147D01*
X135122228Y-80821297D01*
X134957816Y-80854000D01*
X134790184Y-80854000D01*
X134625772Y-80821297D01*
X134470900Y-80757147D01*
X134331519Y-80664015D01*
X134212985Y-80545481D01*
X134119853Y-80406100D01*
X134055703Y-80251228D01*
X134023000Y-80086816D01*
X134023000Y-79919184D01*
X134055703Y-79754772D01*
X134119853Y-79599900D01*
X134212985Y-79460519D01*
X134331519Y-79341985D01*
X134470900Y-79248853D01*
X134625772Y-79184703D01*
X134790184Y-79152000D01*
X134957816Y-79152000D01*
X135122228Y-79184703D01*
X135122228Y-79184703D01*
G37*
G36*
X136902228Y-78169703D02*
X137057100Y-78233853D01*
X137196481Y-78326985D01*
X137315015Y-78445519D01*
X137408147Y-78584900D01*
X137472297Y-78739772D01*
X137505000Y-78904184D01*
X137505000Y-79071816D01*
X137472297Y-79236228D01*
X137408147Y-79391100D01*
X137315015Y-79530481D01*
X137196481Y-79649015D01*
X137057100Y-79742147D01*
X136902228Y-79806297D01*
X136737816Y-79839000D01*
X136570184Y-79839000D01*
X136405772Y-79806297D01*
X136250900Y-79742147D01*
X136111519Y-79649015D01*
X135992985Y-79530481D01*
X135899853Y-79391100D01*
X135835703Y-79236228D01*
X135803000Y-79071816D01*
X135803000Y-78904184D01*
X135835703Y-78739772D01*
X135899853Y-78584900D01*
X135992985Y-78445519D01*
X136111519Y-78326985D01*
X136250900Y-78233853D01*
X136405772Y-78169703D01*
X136570184Y-78137000D01*
X136737816Y-78137000D01*
X136902228Y-78169703D01*
X136902228Y-78169703D01*
G37*
G36*
X135122228Y-77154703D02*
X135277100Y-77218853D01*
X135416481Y-77311985D01*
X135535015Y-77430519D01*
X135628147Y-77569900D01*
X135692297Y-77724772D01*
X135725000Y-77889184D01*
X135725000Y-78056816D01*
X135692297Y-78221228D01*
X135628147Y-78376100D01*
X135535015Y-78515481D01*
X135416481Y-78634015D01*
X135277100Y-78727147D01*
X135122228Y-78791297D01*
X134957816Y-78824000D01*
X134790184Y-78824000D01*
X134625772Y-78791297D01*
X134470900Y-78727147D01*
X134331519Y-78634015D01*
X134212985Y-78515481D01*
X134119853Y-78376100D01*
X134055703Y-78221228D01*
X134023000Y-78056816D01*
X134023000Y-77889184D01*
X134055703Y-77724772D01*
X134119853Y-77569900D01*
X134212985Y-77430519D01*
X134331519Y-77311985D01*
X134470900Y-77218853D01*
X134625772Y-77154703D01*
X134790184Y-77122000D01*
X134957816Y-77122000D01*
X135122228Y-77154703D01*
X135122228Y-77154703D01*
G37*
G36*
X156955443Y-76575519D02*
X157021627Y-76582037D01*
X157133341Y-76615925D01*
X157191467Y-76633557D01*
X157264654Y-76672677D01*
X157347991Y-76717222D01*
X157381964Y-76745103D01*
X157485186Y-76829814D01*
X157568448Y-76931271D01*
X157597778Y-76967009D01*
X157597779Y-76967011D01*
X157681443Y-77123533D01*
X157681443Y-77123534D01*
X157732963Y-77293373D01*
X157750359Y-77470000D01*
X157732963Y-77646627D01*
X157713088Y-77712146D01*
X157681443Y-77816467D01*
X157642574Y-77889184D01*
X157597778Y-77972991D01*
X157568448Y-78008729D01*
X157485186Y-78110186D01*
X157383729Y-78193448D01*
X157347991Y-78222778D01*
X157347989Y-78222779D01*
X157191467Y-78306443D01*
X157134853Y-78323616D01*
X157021627Y-78357963D01*
X156955443Y-78364481D01*
X156889260Y-78371000D01*
X156800740Y-78371000D01*
X156734557Y-78364481D01*
X156668373Y-78357963D01*
X156555147Y-78323616D01*
X156498533Y-78306443D01*
X156342011Y-78222779D01*
X156342009Y-78222778D01*
X156306271Y-78193448D01*
X156204814Y-78110186D01*
X156121552Y-78008729D01*
X156092222Y-77972991D01*
X156047426Y-77889184D01*
X156008557Y-77816467D01*
X155976912Y-77712146D01*
X155957037Y-77646627D01*
X155939641Y-77470000D01*
X155957037Y-77293373D01*
X156008557Y-77123534D01*
X156008557Y-77123533D01*
X156092221Y-76967011D01*
X156092222Y-76967009D01*
X156121552Y-76931271D01*
X156204814Y-76829814D01*
X156308036Y-76745103D01*
X156342009Y-76717222D01*
X156425346Y-76672677D01*
X156498533Y-76633557D01*
X156556659Y-76615925D01*
X156668373Y-76582037D01*
X156734557Y-76575519D01*
X156800740Y-76569000D01*
X156889260Y-76569000D01*
X156955443Y-76575519D01*
X156955443Y-76575519D01*
G37*
G36*
X136902228Y-76139703D02*
X137057100Y-76203853D01*
X137196481Y-76296985D01*
X137315015Y-76415519D01*
X137408147Y-76554900D01*
X137472297Y-76709772D01*
X137505000Y-76874184D01*
X137505000Y-77041816D01*
X137472297Y-77206228D01*
X137408147Y-77361100D01*
X137315015Y-77500481D01*
X137196481Y-77619015D01*
X137057100Y-77712147D01*
X136902228Y-77776297D01*
X136737816Y-77809000D01*
X136570184Y-77809000D01*
X136405772Y-77776297D01*
X136250900Y-77712147D01*
X136111519Y-77619015D01*
X135992985Y-77500481D01*
X135899853Y-77361100D01*
X135835703Y-77206228D01*
X135803000Y-77041816D01*
X135803000Y-76874184D01*
X135835703Y-76709772D01*
X135899853Y-76554900D01*
X135992985Y-76415519D01*
X136111519Y-76296985D01*
X136250900Y-76203853D01*
X136405772Y-76139703D01*
X136570184Y-76107000D01*
X136737816Y-76107000D01*
X136902228Y-76139703D01*
X136902228Y-76139703D01*
G37*
G36*
X153242677Y-75587465D02*
X153280364Y-75598898D01*
X153315103Y-75617466D01*
X153345548Y-75642452D01*
X153370534Y-75672897D01*
X153389102Y-75707636D01*
X153400535Y-75745323D01*
X153405000Y-75790661D01*
X153405000Y-76627339D01*
X153400535Y-76672677D01*
X153389102Y-76710364D01*
X153370534Y-76745103D01*
X153345548Y-76775548D01*
X153315103Y-76800534D01*
X153280364Y-76819102D01*
X153242677Y-76830535D01*
X153197339Y-76835000D01*
X152110661Y-76835000D01*
X152065323Y-76830535D01*
X152027636Y-76819102D01*
X151992897Y-76800534D01*
X151962452Y-76775548D01*
X151937466Y-76745103D01*
X151918898Y-76710364D01*
X151907465Y-76672677D01*
X151903000Y-76627339D01*
X151903000Y-75790661D01*
X151907465Y-75745323D01*
X151918898Y-75707636D01*
X151937466Y-75672897D01*
X151962452Y-75642452D01*
X151992897Y-75617466D01*
X152027636Y-75598898D01*
X152065323Y-75587465D01*
X152110661Y-75583000D01*
X153197339Y-75583000D01*
X153242677Y-75587465D01*
X153242677Y-75587465D01*
G37*
G36*
X141722228Y-75129703D02*
X141877100Y-75193853D01*
X142016481Y-75286985D01*
X142135015Y-75405519D01*
X142228147Y-75544900D01*
X142292297Y-75699772D01*
X142325000Y-75864184D01*
X142325000Y-76031816D01*
X142292297Y-76196228D01*
X142228147Y-76351100D01*
X142135015Y-76490481D01*
X142016481Y-76609015D01*
X141877100Y-76702147D01*
X141722228Y-76766297D01*
X141557816Y-76799000D01*
X141390184Y-76799000D01*
X141225772Y-76766297D01*
X141070900Y-76702147D01*
X140931519Y-76609015D01*
X140812985Y-76490481D01*
X140719853Y-76351100D01*
X140655703Y-76196228D01*
X140623000Y-76031816D01*
X140623000Y-75864184D01*
X140655703Y-75699772D01*
X140719853Y-75544900D01*
X140812985Y-75405519D01*
X140931519Y-75286985D01*
X141070900Y-75193853D01*
X141225772Y-75129703D01*
X141390184Y-75097000D01*
X141557816Y-75097000D01*
X141722228Y-75129703D01*
X141722228Y-75129703D01*
G37*
G36*
X132859331Y-72436211D02*
X133187092Y-72571974D01*
X133482073Y-72769074D01*
X133732926Y-73019927D01*
X133930026Y-73314908D01*
X134065789Y-73642669D01*
X134135000Y-73990616D01*
X134135000Y-74345384D01*
X134065789Y-74693331D01*
X133930026Y-75021092D01*
X133732926Y-75316073D01*
X133482073Y-75566926D01*
X133187092Y-75764026D01*
X132859331Y-75899789D01*
X132511384Y-75969000D01*
X132156616Y-75969000D01*
X131808669Y-75899789D01*
X131480908Y-75764026D01*
X131185927Y-75566926D01*
X130935074Y-75316073D01*
X130737974Y-75021092D01*
X130602211Y-74693331D01*
X130533000Y-74345384D01*
X130533000Y-73990616D01*
X130602211Y-73642669D01*
X130737974Y-73314908D01*
X130935074Y-73019927D01*
X131185927Y-72769074D01*
X131480908Y-72571974D01*
X131808669Y-72436211D01*
X132156616Y-72367000D01*
X132511384Y-72367000D01*
X132859331Y-72436211D01*
X132859331Y-72436211D01*
G37*
G36*
X156955442Y-74035518D02*
X157021627Y-74042037D01*
X157084469Y-74061100D01*
X157191467Y-74093557D01*
X157277720Y-74139661D01*
X157347991Y-74177222D01*
X157376332Y-74200481D01*
X157485186Y-74289814D01*
X157530790Y-74345384D01*
X157597778Y-74427009D01*
X157597779Y-74427011D01*
X157681443Y-74583533D01*
X157681443Y-74583534D01*
X157732963Y-74753373D01*
X157750359Y-74930000D01*
X157732963Y-75106627D01*
X157709492Y-75184000D01*
X157681443Y-75276467D01*
X157612462Y-75405519D01*
X157597778Y-75432991D01*
X157568448Y-75468729D01*
X157485186Y-75570186D01*
X157413679Y-75628869D01*
X157347991Y-75682778D01*
X157347989Y-75682779D01*
X157191467Y-75766443D01*
X157134853Y-75783616D01*
X157021627Y-75817963D01*
X156955442Y-75824482D01*
X156889260Y-75831000D01*
X156800740Y-75831000D01*
X156734558Y-75824482D01*
X156668373Y-75817963D01*
X156555147Y-75783616D01*
X156498533Y-75766443D01*
X156342011Y-75682779D01*
X156342009Y-75682778D01*
X156276321Y-75628869D01*
X156204814Y-75570186D01*
X156121552Y-75468729D01*
X156092222Y-75432991D01*
X156077538Y-75405519D01*
X156008557Y-75276467D01*
X155980508Y-75184000D01*
X155957037Y-75106627D01*
X155939641Y-74930000D01*
X155957037Y-74753373D01*
X156008557Y-74583534D01*
X156008557Y-74583533D01*
X156092221Y-74427011D01*
X156092222Y-74427009D01*
X156159210Y-74345384D01*
X156204814Y-74289814D01*
X156313668Y-74200481D01*
X156342009Y-74177222D01*
X156412280Y-74139661D01*
X156498533Y-74093557D01*
X156605531Y-74061100D01*
X156668373Y-74042037D01*
X156734558Y-74035518D01*
X156800740Y-74029000D01*
X156889260Y-74029000D01*
X156955442Y-74035518D01*
X156955442Y-74035518D01*
G37*
G36*
X150702677Y-73936465D02*
X150740364Y-73947898D01*
X150775103Y-73966466D01*
X150805548Y-73991452D01*
X150830534Y-74021897D01*
X150849102Y-74056636D01*
X150860535Y-74094323D01*
X150865000Y-74139661D01*
X150865000Y-74976339D01*
X150860535Y-75021677D01*
X150849102Y-75059364D01*
X150830534Y-75094103D01*
X150805548Y-75124548D01*
X150775103Y-75149534D01*
X150740364Y-75168102D01*
X150702677Y-75179535D01*
X150657339Y-75184000D01*
X149570661Y-75184000D01*
X149525323Y-75179535D01*
X149487636Y-75168102D01*
X149452897Y-75149534D01*
X149422452Y-75124548D01*
X149397466Y-75094103D01*
X149378898Y-75059364D01*
X149367465Y-75021677D01*
X149363000Y-74976339D01*
X149363000Y-74139661D01*
X149367465Y-74094323D01*
X149378898Y-74056636D01*
X149397466Y-74021897D01*
X149422452Y-73991452D01*
X149452897Y-73966466D01*
X149487636Y-73947898D01*
X149525323Y-73936465D01*
X149570661Y-73932000D01*
X150657339Y-73932000D01*
X150702677Y-73936465D01*
X150702677Y-73936465D01*
G37*
G36*
X148186000Y-75061000D02*
X147184000Y-75061000D01*
X147184000Y-74159000D01*
X148186000Y-74159000D01*
X148186000Y-75061000D01*
X148186000Y-75061000D01*
G37*
G36*
X153242677Y-73537465D02*
X153280364Y-73548898D01*
X153315103Y-73567466D01*
X153345548Y-73592452D01*
X153370534Y-73622897D01*
X153389102Y-73657636D01*
X153400535Y-73695323D01*
X153405000Y-73740661D01*
X153405000Y-74577339D01*
X153400535Y-74622677D01*
X153389102Y-74660364D01*
X153370534Y-74695103D01*
X153345548Y-74725548D01*
X153315103Y-74750534D01*
X153280364Y-74769102D01*
X153242677Y-74780535D01*
X153197339Y-74785000D01*
X152110661Y-74785000D01*
X152065323Y-74780535D01*
X152027636Y-74769102D01*
X151992897Y-74750534D01*
X151962452Y-74725548D01*
X151937466Y-74695103D01*
X151918898Y-74660364D01*
X151907465Y-74622677D01*
X151903000Y-74577339D01*
X151903000Y-73740661D01*
X151907465Y-73695323D01*
X151918898Y-73657636D01*
X151937466Y-73622897D01*
X151962452Y-73592452D01*
X151992897Y-73567466D01*
X152027636Y-73548898D01*
X152065323Y-73537465D01*
X152110661Y-73533000D01*
X153197339Y-73533000D01*
X153242677Y-73537465D01*
X153242677Y-73537465D01*
G37*
G36*
X141722228Y-72839703D02*
X141877100Y-72903853D01*
X142016481Y-72996985D01*
X142135015Y-73115519D01*
X142228147Y-73254900D01*
X142292297Y-73409772D01*
X142325000Y-73574184D01*
X142325000Y-73741816D01*
X142292297Y-73906228D01*
X142228147Y-74061100D01*
X142135015Y-74200481D01*
X142016481Y-74319015D01*
X141877100Y-74412147D01*
X141722228Y-74476297D01*
X141557816Y-74509000D01*
X141390184Y-74509000D01*
X141225772Y-74476297D01*
X141070900Y-74412147D01*
X140931519Y-74319015D01*
X140812985Y-74200481D01*
X140719853Y-74061100D01*
X140655703Y-73906228D01*
X140623000Y-73741816D01*
X140623000Y-73574184D01*
X140655703Y-73409772D01*
X140719853Y-73254900D01*
X140812985Y-73115519D01*
X140931519Y-72996985D01*
X141070900Y-72903853D01*
X141225772Y-72839703D01*
X141390184Y-72807000D01*
X141557816Y-72807000D01*
X141722228Y-72839703D01*
X141722228Y-72839703D01*
G37*
G36*
X146186000Y-74111000D02*
X145184000Y-74111000D01*
X145184000Y-73209000D01*
X146186000Y-73209000D01*
X146186000Y-74111000D01*
X146186000Y-74111000D01*
G37*
G36*
X135947635Y-71149019D02*
X136128903Y-71185075D01*
X136356571Y-71279378D01*
X136560542Y-71415668D01*
X136561469Y-71416287D01*
X136735713Y-71590531D01*
X136735715Y-71590534D01*
X136872622Y-71795429D01*
X136966925Y-72023097D01*
X137015000Y-72264787D01*
X137015000Y-72511213D01*
X136966925Y-72752903D01*
X136872622Y-72980571D01*
X136752063Y-73161000D01*
X136735713Y-73185469D01*
X136561469Y-73359713D01*
X136561466Y-73359715D01*
X136356571Y-73496622D01*
X136128903Y-73590925D01*
X135968168Y-73622897D01*
X135887214Y-73639000D01*
X135640786Y-73639000D01*
X135559832Y-73622897D01*
X135399097Y-73590925D01*
X135171429Y-73496622D01*
X134966534Y-73359715D01*
X134966531Y-73359713D01*
X134792287Y-73185469D01*
X134775937Y-73161000D01*
X134655378Y-72980571D01*
X134561075Y-72752903D01*
X134513000Y-72511213D01*
X134513000Y-72264787D01*
X134561075Y-72023097D01*
X134655378Y-71795429D01*
X134792285Y-71590534D01*
X134792287Y-71590531D01*
X134966531Y-71416287D01*
X134967458Y-71415668D01*
X135171429Y-71279378D01*
X135399097Y-71185075D01*
X135580365Y-71149019D01*
X135640786Y-71137000D01*
X135887214Y-71137000D01*
X135947635Y-71149019D01*
X135947635Y-71149019D01*
G37*
G36*
X148186000Y-73161000D02*
X147184000Y-73161000D01*
X147184000Y-72259000D01*
X148186000Y-72259000D01*
X148186000Y-73161000D01*
X148186000Y-73161000D01*
G37*
G36*
X150702677Y-71886465D02*
X150740364Y-71897898D01*
X150775103Y-71916466D01*
X150805548Y-71941452D01*
X150830534Y-71971897D01*
X150849102Y-72006636D01*
X150860535Y-72044323D01*
X150865000Y-72089661D01*
X150865000Y-72926339D01*
X150860535Y-72971677D01*
X150849102Y-73009364D01*
X150830534Y-73044103D01*
X150805548Y-73074548D01*
X150775103Y-73099534D01*
X150740364Y-73118102D01*
X150702677Y-73129535D01*
X150657339Y-73134000D01*
X149570661Y-73134000D01*
X149525323Y-73129535D01*
X149487636Y-73118102D01*
X149452897Y-73099534D01*
X149422452Y-73074548D01*
X149397466Y-73044103D01*
X149378898Y-73009364D01*
X149367465Y-72971677D01*
X149363000Y-72926339D01*
X149363000Y-72089661D01*
X149367465Y-72044323D01*
X149378898Y-72006636D01*
X149397466Y-71971897D01*
X149422452Y-71941452D01*
X149452897Y-71916466D01*
X149487636Y-71897898D01*
X149525323Y-71886465D01*
X149570661Y-71882000D01*
X150657339Y-71882000D01*
X150702677Y-71886465D01*
X150702677Y-71886465D01*
G37*
G36*
X153242677Y-71777465D02*
X153280364Y-71788898D01*
X153315103Y-71807466D01*
X153345548Y-71832452D01*
X153370534Y-71862897D01*
X153389102Y-71897636D01*
X153400535Y-71935323D01*
X153405000Y-71980661D01*
X153405000Y-72817339D01*
X153400535Y-72862677D01*
X153389102Y-72900364D01*
X153370534Y-72935103D01*
X153345548Y-72965548D01*
X153315103Y-72990534D01*
X153280364Y-73009102D01*
X153242677Y-73020535D01*
X153197339Y-73025000D01*
X152110661Y-73025000D01*
X152065323Y-73020535D01*
X152027636Y-73009102D01*
X151992897Y-72990534D01*
X151962452Y-72965548D01*
X151937466Y-72935103D01*
X151918898Y-72900364D01*
X151907465Y-72862677D01*
X151903000Y-72817339D01*
X151903000Y-71980661D01*
X151907465Y-71935323D01*
X151918898Y-71897636D01*
X151937466Y-71862897D01*
X151962452Y-71832452D01*
X151992897Y-71807466D01*
X152027636Y-71788898D01*
X152065323Y-71777465D01*
X152110661Y-71773000D01*
X153197339Y-71773000D01*
X153242677Y-71777465D01*
X153242677Y-71777465D01*
G37*
G36*
X153242677Y-69727465D02*
X153280364Y-69738898D01*
X153315103Y-69757466D01*
X153345548Y-69782452D01*
X153370534Y-69812897D01*
X153389102Y-69847636D01*
X153400535Y-69885323D01*
X153405000Y-69930661D01*
X153405000Y-70767339D01*
X153400535Y-70812677D01*
X153389102Y-70850364D01*
X153370534Y-70885103D01*
X153345548Y-70915548D01*
X153315103Y-70940534D01*
X153280364Y-70959102D01*
X153242677Y-70970535D01*
X153197339Y-70975000D01*
X152110661Y-70975000D01*
X152065323Y-70970535D01*
X152027636Y-70959102D01*
X151992897Y-70940534D01*
X151962452Y-70915548D01*
X151937466Y-70885103D01*
X151918898Y-70850364D01*
X151907465Y-70812677D01*
X151903000Y-70767339D01*
X151903000Y-69930661D01*
X151907465Y-69885323D01*
X151918898Y-69847636D01*
X151937466Y-69812897D01*
X151962452Y-69782452D01*
X151992897Y-69757466D01*
X152027636Y-69738898D01*
X152065323Y-69727465D01*
X152110661Y-69723000D01*
X153197339Y-69723000D01*
X153242677Y-69727465D01*
X153242677Y-69727465D01*
G37*
G36*
X140408677Y-67833465D02*
X140446364Y-67844898D01*
X140481103Y-67863466D01*
X140511548Y-67888452D01*
X140536534Y-67918897D01*
X140555102Y-67953636D01*
X140566535Y-67991323D01*
X140571000Y-68036661D01*
X140571000Y-69123339D01*
X140566535Y-69168677D01*
X140555102Y-69206364D01*
X140536534Y-69241103D01*
X140511548Y-69271548D01*
X140481103Y-69296534D01*
X140446364Y-69315102D01*
X140408677Y-69326535D01*
X140363339Y-69331000D01*
X139526661Y-69331000D01*
X139481323Y-69326535D01*
X139443636Y-69315102D01*
X139408897Y-69296534D01*
X139378452Y-69271548D01*
X139353466Y-69241103D01*
X139334898Y-69206364D01*
X139323465Y-69168677D01*
X139319000Y-69123339D01*
X139319000Y-68036661D01*
X139323465Y-67991323D01*
X139334898Y-67953636D01*
X139353466Y-67918897D01*
X139378452Y-67888452D01*
X139408897Y-67863466D01*
X139443636Y-67844898D01*
X139481323Y-67833465D01*
X139526661Y-67829000D01*
X140363339Y-67829000D01*
X140408677Y-67833465D01*
X140408677Y-67833465D01*
G37*
G36*
X137378677Y-67833465D02*
X137416364Y-67844898D01*
X137451103Y-67863466D01*
X137481548Y-67888452D01*
X137506534Y-67918897D01*
X137525102Y-67953636D01*
X137536535Y-67991323D01*
X137541000Y-68036661D01*
X137541000Y-69123339D01*
X137536535Y-69168677D01*
X137525102Y-69206364D01*
X137506534Y-69241103D01*
X137481548Y-69271548D01*
X137451103Y-69296534D01*
X137416364Y-69315102D01*
X137378677Y-69326535D01*
X137333339Y-69331000D01*
X136496661Y-69331000D01*
X136451323Y-69326535D01*
X136413636Y-69315102D01*
X136378897Y-69296534D01*
X136348452Y-69271548D01*
X136323466Y-69241103D01*
X136304898Y-69206364D01*
X136293465Y-69168677D01*
X136289000Y-69123339D01*
X136289000Y-68036661D01*
X136293465Y-67991323D01*
X136304898Y-67953636D01*
X136323466Y-67918897D01*
X136348452Y-67888452D01*
X136378897Y-67863466D01*
X136413636Y-67844898D01*
X136451323Y-67833465D01*
X136496661Y-67829000D01*
X137333339Y-67829000D01*
X137378677Y-67833465D01*
X137378677Y-67833465D01*
G37*
G36*
X142458677Y-67833465D02*
X142496364Y-67844898D01*
X142531103Y-67863466D01*
X142561548Y-67888452D01*
X142586534Y-67918897D01*
X142605102Y-67953636D01*
X142616535Y-67991323D01*
X142621000Y-68036661D01*
X142621000Y-69123339D01*
X142616535Y-69168677D01*
X142605102Y-69206364D01*
X142586534Y-69241103D01*
X142561548Y-69271548D01*
X142531103Y-69296534D01*
X142496364Y-69315102D01*
X142458677Y-69326535D01*
X142413339Y-69331000D01*
X141576661Y-69331000D01*
X141531323Y-69326535D01*
X141493636Y-69315102D01*
X141458897Y-69296534D01*
X141428452Y-69271548D01*
X141403466Y-69241103D01*
X141384898Y-69206364D01*
X141373465Y-69168677D01*
X141369000Y-69123339D01*
X141369000Y-68036661D01*
X141373465Y-67991323D01*
X141384898Y-67953636D01*
X141403466Y-67918897D01*
X141428452Y-67888452D01*
X141458897Y-67863466D01*
X141493636Y-67844898D01*
X141531323Y-67833465D01*
X141576661Y-67829000D01*
X142413339Y-67829000D01*
X142458677Y-67833465D01*
X142458677Y-67833465D01*
G37*
G36*
X135328677Y-67833465D02*
X135366364Y-67844898D01*
X135401103Y-67863466D01*
X135431548Y-67888452D01*
X135456534Y-67918897D01*
X135475102Y-67953636D01*
X135486535Y-67991323D01*
X135491000Y-68036661D01*
X135491000Y-69123339D01*
X135486535Y-69168677D01*
X135475102Y-69206364D01*
X135456534Y-69241103D01*
X135431548Y-69271548D01*
X135401103Y-69296534D01*
X135366364Y-69315102D01*
X135328677Y-69326535D01*
X135283339Y-69331000D01*
X134446661Y-69331000D01*
X134401323Y-69326535D01*
X134363636Y-69315102D01*
X134328897Y-69296534D01*
X134298452Y-69271548D01*
X134273466Y-69241103D01*
X134254898Y-69206364D01*
X134243465Y-69168677D01*
X134239000Y-69123339D01*
X134239000Y-68036661D01*
X134243465Y-67991323D01*
X134254898Y-67953636D01*
X134273466Y-67918897D01*
X134298452Y-67888452D01*
X134328897Y-67863466D01*
X134363636Y-67844898D01*
X134401323Y-67833465D01*
X134446661Y-67829000D01*
X135283339Y-67829000D01*
X135328677Y-67833465D01*
X135328677Y-67833465D01*
G37*
G36*
X150237000Y-66743000D02*
X146435000Y-66743000D01*
X146435000Y-64641000D01*
X150237000Y-64641000D01*
X150237000Y-66743000D01*
X150237000Y-66743000D01*
G37*
G36*
X153837000Y-66493000D02*
X151735000Y-66493000D01*
X151735000Y-64691000D01*
X153837000Y-64691000D01*
X153837000Y-66493000D01*
X153837000Y-66493000D01*
G37*
G36*
X144937000Y-66493000D02*
X142835000Y-66493000D01*
X142835000Y-64691000D01*
X144937000Y-64691000D01*
X144937000Y-66493000D01*
X144937000Y-66493000D01*
G37*
G36*
X129783210Y-63093489D02*
X129869949Y-63119802D01*
X129949891Y-63162532D01*
X130019963Y-63220037D01*
X130077468Y-63290109D01*
X130120198Y-63370051D01*
X130146511Y-63456790D01*
X130156000Y-63553140D01*
X130156000Y-64716860D01*
X130146511Y-64813210D01*
X130120198Y-64899949D01*
X130077468Y-64979891D01*
X130019963Y-65049963D01*
X129949891Y-65107468D01*
X129869949Y-65150198D01*
X129783210Y-65176511D01*
X129686860Y-65186000D01*
X128123140Y-65186000D01*
X128026790Y-65176511D01*
X127940051Y-65150198D01*
X127860109Y-65107468D01*
X127790037Y-65049963D01*
X127732532Y-64979891D01*
X127689802Y-64899949D01*
X127663489Y-64813210D01*
X127654000Y-64716860D01*
X127654000Y-63553140D01*
X127663489Y-63456790D01*
X127689802Y-63370051D01*
X127732532Y-63290109D01*
X127790037Y-63220037D01*
X127860109Y-63162532D01*
X127940051Y-63119802D01*
X128026790Y-63093489D01*
X128123140Y-63084000D01*
X129686860Y-63084000D01*
X129783210Y-63093489D01*
X129783210Y-63093489D01*
G37*
G36*
X160263210Y-63093489D02*
X160349949Y-63119802D01*
X160429891Y-63162532D01*
X160499963Y-63220037D01*
X160557468Y-63290109D01*
X160600198Y-63370051D01*
X160626511Y-63456790D01*
X160636000Y-63553140D01*
X160636000Y-64716860D01*
X160626511Y-64813210D01*
X160600198Y-64899949D01*
X160557468Y-64979891D01*
X160499963Y-65049963D01*
X160429891Y-65107468D01*
X160349949Y-65150198D01*
X160263210Y-65176511D01*
X160166860Y-65186000D01*
X158603140Y-65186000D01*
X158506790Y-65176511D01*
X158420051Y-65150198D01*
X158340109Y-65107468D01*
X158270037Y-65049963D01*
X158212532Y-64979891D01*
X158169802Y-64899949D01*
X158143489Y-64813210D01*
X158134000Y-64716860D01*
X158134000Y-63553140D01*
X158143489Y-63456790D01*
X158169802Y-63370051D01*
X158212532Y-63290109D01*
X158270037Y-63220037D01*
X158340109Y-63162532D01*
X158420051Y-63119802D01*
X158506790Y-63093489D01*
X158603140Y-63084000D01*
X160166860Y-63084000D01*
X160263210Y-63093489D01*
X160263210Y-63093489D01*
G37*
G36*
X138878903Y-59338213D02*
X139101177Y-59382426D01*
X139519932Y-59555880D01*
X139896802Y-59807696D01*
X140217304Y-60128198D01*
X140469120Y-60505068D01*
X140642574Y-60923823D01*
X140731000Y-61368371D01*
X140731000Y-61821629D01*
X140642574Y-62266177D01*
X140469120Y-62684932D01*
X140217304Y-63061802D01*
X139896802Y-63382304D01*
X139519932Y-63634120D01*
X139101177Y-63807574D01*
X138878903Y-63851787D01*
X138656630Y-63896000D01*
X138203370Y-63896000D01*
X137981097Y-63851787D01*
X137758823Y-63807574D01*
X137340068Y-63634120D01*
X136963198Y-63382304D01*
X136642696Y-63061802D01*
X136390880Y-62684932D01*
X136217426Y-62266177D01*
X136129000Y-61821629D01*
X136129000Y-61368371D01*
X136217426Y-60923823D01*
X136390880Y-60505068D01*
X136642696Y-60128198D01*
X136963198Y-59807696D01*
X137340068Y-59555880D01*
X137758823Y-59382426D01*
X137981097Y-59338213D01*
X138203370Y-59294000D01*
X138656630Y-59294000D01*
X138878903Y-59338213D01*
X138878903Y-59338213D01*
G37*
G36*
X146296721Y-62462174D02*
X146396995Y-62503709D01*
X146487245Y-62564012D01*
X146563988Y-62640755D01*
X146624291Y-62731005D01*
X146665826Y-62831279D01*
X146687000Y-62937730D01*
X146687000Y-63046270D01*
X146665826Y-63152721D01*
X146624291Y-63252995D01*
X146563988Y-63343245D01*
X146487245Y-63419988D01*
X146396995Y-63480291D01*
X146296721Y-63521826D01*
X146190270Y-63543000D01*
X146081730Y-63543000D01*
X145975279Y-63521826D01*
X145875005Y-63480291D01*
X145784755Y-63419988D01*
X145708012Y-63343245D01*
X145647709Y-63252995D01*
X145606174Y-63152721D01*
X145585000Y-63046270D01*
X145585000Y-62937730D01*
X145606174Y-62831279D01*
X145647709Y-62731005D01*
X145708012Y-62640755D01*
X145784755Y-62564012D01*
X145875005Y-62503709D01*
X145975279Y-62462174D01*
X146081730Y-62441000D01*
X146190270Y-62441000D01*
X146296721Y-62462174D01*
X146296721Y-62462174D01*
G37*
G36*
X150696721Y-62462174D02*
X150796995Y-62503709D01*
X150887245Y-62564012D01*
X150963988Y-62640755D01*
X151024291Y-62731005D01*
X151065826Y-62831279D01*
X151087000Y-62937730D01*
X151087000Y-63046270D01*
X151065826Y-63152721D01*
X151024291Y-63252995D01*
X150963988Y-63343245D01*
X150887245Y-63419988D01*
X150796995Y-63480291D01*
X150696721Y-63521826D01*
X150590270Y-63543000D01*
X150481730Y-63543000D01*
X150375279Y-63521826D01*
X150275005Y-63480291D01*
X150184755Y-63419988D01*
X150108012Y-63343245D01*
X150047709Y-63252995D01*
X150006174Y-63152721D01*
X149985000Y-63046270D01*
X149985000Y-62937730D01*
X150006174Y-62831279D01*
X150047709Y-62731005D01*
X150108012Y-62640755D01*
X150184755Y-62564012D01*
X150275005Y-62503709D01*
X150375279Y-62462174D01*
X150481730Y-62441000D01*
X150590270Y-62441000D01*
X150696721Y-62462174D01*
X150696721Y-62462174D01*
G37*
G36*
X160263210Y-60553489D02*
X160349949Y-60579802D01*
X160429891Y-60622532D01*
X160499963Y-60680037D01*
X160557468Y-60750109D01*
X160600198Y-60830051D01*
X160626511Y-60916790D01*
X160636000Y-61013140D01*
X160636000Y-62176860D01*
X160626511Y-62273210D01*
X160600198Y-62359949D01*
X160557468Y-62439891D01*
X160499963Y-62509963D01*
X160429891Y-62567468D01*
X160349949Y-62610198D01*
X160263210Y-62636511D01*
X160166860Y-62646000D01*
X158603140Y-62646000D01*
X158506790Y-62636511D01*
X158420051Y-62610198D01*
X158340109Y-62567468D01*
X158270037Y-62509963D01*
X158212532Y-62439891D01*
X158169802Y-62359949D01*
X158143489Y-62273210D01*
X158134000Y-62176860D01*
X158134000Y-61013140D01*
X158143489Y-60916790D01*
X158169802Y-60830051D01*
X158212532Y-60750109D01*
X158270037Y-60680037D01*
X158340109Y-60622532D01*
X158420051Y-60579802D01*
X158506790Y-60553489D01*
X158603140Y-60544000D01*
X160166860Y-60544000D01*
X160263210Y-60553489D01*
X160263210Y-60553489D01*
G37*
G36*
X129783210Y-60553489D02*
X129869949Y-60579802D01*
X129949891Y-60622532D01*
X130019963Y-60680037D01*
X130077468Y-60750109D01*
X130120198Y-60830051D01*
X130146511Y-60916790D01*
X130156000Y-61013140D01*
X130156000Y-62176860D01*
X130146511Y-62273210D01*
X130120198Y-62359949D01*
X130077468Y-62439891D01*
X130019963Y-62509963D01*
X129949891Y-62567468D01*
X129869949Y-62610198D01*
X129783210Y-62636511D01*
X129686860Y-62646000D01*
X128123140Y-62646000D01*
X128026790Y-62636511D01*
X127940051Y-62610198D01*
X127860109Y-62567468D01*
X127790037Y-62509963D01*
X127732532Y-62439891D01*
X127689802Y-62359949D01*
X127663489Y-62273210D01*
X127654000Y-62176860D01*
X127654000Y-61013140D01*
X127663489Y-60916790D01*
X127689802Y-60830051D01*
X127732532Y-60750109D01*
X127790037Y-60680037D01*
X127860109Y-60622532D01*
X127940051Y-60579802D01*
X128026790Y-60553489D01*
X128123140Y-60544000D01*
X129686860Y-60544000D01*
X129783210Y-60553489D01*
X129783210Y-60553489D01*
G37*
G36*
X144937000Y-61043000D02*
X142835000Y-61043000D01*
X142835000Y-59241000D01*
X144937000Y-59241000D01*
X144937000Y-61043000D01*
X144937000Y-61043000D01*
G37*
G36*
X153837000Y-61043000D02*
X151735000Y-61043000D01*
X151735000Y-59241000D01*
X153837000Y-59241000D01*
X153837000Y-61043000D01*
X153837000Y-61043000D01*
G37*
G36*
X129783210Y-58013489D02*
X129869949Y-58039802D01*
X129949891Y-58082532D01*
X130019963Y-58140037D01*
X130077468Y-58210109D01*
X130120198Y-58290051D01*
X130146511Y-58376790D01*
X130156000Y-58473140D01*
X130156000Y-59636860D01*
X130146511Y-59733210D01*
X130120198Y-59819949D01*
X130077468Y-59899891D01*
X130019963Y-59969963D01*
X129949891Y-60027468D01*
X129869949Y-60070198D01*
X129783210Y-60096511D01*
X129686860Y-60106000D01*
X128123140Y-60106000D01*
X128026790Y-60096511D01*
X127940051Y-60070198D01*
X127860109Y-60027468D01*
X127790037Y-59969963D01*
X127732532Y-59899891D01*
X127689802Y-59819949D01*
X127663489Y-59733210D01*
X127654000Y-59636860D01*
X127654000Y-58473140D01*
X127663489Y-58376790D01*
X127689802Y-58290051D01*
X127732532Y-58210109D01*
X127790037Y-58140037D01*
X127860109Y-58082532D01*
X127940051Y-58039802D01*
X128026790Y-58013489D01*
X128123140Y-58004000D01*
X129686860Y-58004000D01*
X129783210Y-58013489D01*
X129783210Y-58013489D01*
G37*
G36*
X160263210Y-58013489D02*
X160349949Y-58039802D01*
X160429891Y-58082532D01*
X160499963Y-58140037D01*
X160557468Y-58210109D01*
X160600198Y-58290051D01*
X160626511Y-58376790D01*
X160636000Y-58473140D01*
X160636000Y-59636860D01*
X160626511Y-59733210D01*
X160600198Y-59819949D01*
X160557468Y-59899891D01*
X160499963Y-59969963D01*
X160429891Y-60027468D01*
X160349949Y-60070198D01*
X160263210Y-60096511D01*
X160166860Y-60106000D01*
X158603140Y-60106000D01*
X158506790Y-60096511D01*
X158420051Y-60070198D01*
X158340109Y-60027468D01*
X158270037Y-59969963D01*
X158212532Y-59899891D01*
X158169802Y-59819949D01*
X158143489Y-59733210D01*
X158134000Y-59636860D01*
X158134000Y-58473140D01*
X158143489Y-58376790D01*
X158169802Y-58290051D01*
X158212532Y-58210109D01*
X158270037Y-58140037D01*
X158340109Y-58082532D01*
X158420051Y-58039802D01*
X158506790Y-58013489D01*
X158603140Y-58004000D01*
X160166860Y-58004000D01*
X160263210Y-58013489D01*
X160263210Y-58013489D01*
G37*
M02*
