M48
;DRILL file {KiCad 5.0.1+dfsg1-2} date So 02 Dez 2018 20:22:00 CET
;FORMAT={-:-/ absolute / metric / decimal}
FMAT,2
METRIC,TZ
T1C0.400
T2C0.750
T3C0.970
T4C1.000
T5C1.520
T6C1.650
%
G90
G05
M71
T1
X129.032Y-92.71
X129.794Y-91.186
X131.318Y-67.056
X132.08Y-91.186
X132.08Y-99.568
X133.096Y-80.01
X133.35Y-59.055
X138.176Y-85.09
X138.43Y-67.818
X138.43Y-82.296
X138.684Y-76.708
X140.208Y-81.026
X143.764Y-62.738
X143.764Y-89.662
X144.018Y-85.852
X146.05Y-69.85
X149.86Y-67.945
X152.781Y-62.865
X154.432Y-76.708
X154.432Y-78.994
X154.432Y-81.28
X154.432Y-83.058
X154.432Y-84.836
X155.067Y-66.675
X155.702Y-97.155
X155.956Y-89.916
X157.607Y-69.469
X157.607Y-92.583
X158.75Y-66.675
X158.75Y-80.264
X159.131Y-83.82
T2
X148.717Y-88.138
X149.987Y-88.138
X151.257Y-88.138
T3
X134.874Y-77.973
X134.874Y-80.003
X134.874Y-82.033
X134.874Y-84.063
X136.654Y-76.958
X136.654Y-78.988
X136.654Y-81.018
X136.654Y-83.048
X141.474Y-73.658
X141.474Y-75.948
X141.474Y-85.088
X141.474Y-87.378
T4
X156.845Y-74.93
X156.845Y-77.47
X156.845Y-80.01
X156.845Y-82.55
X156.845Y-85.09
T5
X145.415Y-99.06
X150.495Y-99.06
T6
X135.764Y-72.388
X135.764Y-88.648
T0
M30
