G04 #@! TF.GenerationSoftware,KiCad,Pcbnew,5.0.1+dfsg1-2*
G04 #@! TF.CreationDate,2018-12-02T21:23:52+01:00*
G04 #@! TF.ProjectId,rj45-sk6812-adapter,726A34352D736B363831322D61646170,rev?*
G04 #@! TF.SameCoordinates,Original*
G04 #@! TF.FileFunction,Legend,Top*
G04 #@! TF.FilePolarity,Positive*
%FSLAX46Y46*%
G04 Gerber Fmt 4.6, Leading zero omitted, Abs format (unit mm)*
G04 Created by KiCad (PCBNEW 5.0.1+dfsg1-2) date So 02 Dez 2018 21:23:52 CET*
%MOMM*%
%LPD*%
G01*
G04 APERTURE LIST*
%ADD10C,0.200000*%
%ADD11C,0.120000*%
%ADD12C,0.150000*%
G04 APERTURE END LIST*
D10*
X141097000Y-99060000D02*
X142621000Y-99060000D01*
X141859000Y-98298000D02*
X141859000Y-99822000D01*
D11*
G04 #@! TO.C,C4*
X152710000Y-80650000D02*
G75*
G03X152710000Y-80650000I-4120000J0D01*
G01*
X144510000Y-80650000D02*
X152670000Y-80650000D01*
X144510000Y-80610000D02*
X152670000Y-80610000D01*
X144510000Y-80570000D02*
X152670000Y-80570000D01*
X144511000Y-80530000D02*
X152669000Y-80530000D01*
X144513000Y-80490000D02*
X152667000Y-80490000D01*
X144514000Y-80450000D02*
X152666000Y-80450000D01*
X144516000Y-80410000D02*
X152664000Y-80410000D01*
X144519000Y-80370000D02*
X152661000Y-80370000D01*
X144522000Y-80330000D02*
X152658000Y-80330000D01*
X144525000Y-80290000D02*
X152655000Y-80290000D01*
X144529000Y-80250000D02*
X152651000Y-80250000D01*
X144533000Y-80210000D02*
X152647000Y-80210000D01*
X144538000Y-80170000D02*
X152642000Y-80170000D01*
X144542000Y-80130000D02*
X152638000Y-80130000D01*
X144548000Y-80090000D02*
X152632000Y-80090000D01*
X144553000Y-80050000D02*
X152627000Y-80050000D01*
X144560000Y-80010000D02*
X152620000Y-80010000D01*
X144566000Y-79970000D02*
X152614000Y-79970000D01*
X144573000Y-79929000D02*
X152607000Y-79929000D01*
X144580000Y-79889000D02*
X152600000Y-79889000D01*
X144588000Y-79849000D02*
X152592000Y-79849000D01*
X144596000Y-79809000D02*
X152584000Y-79809000D01*
X144605000Y-79769000D02*
X147550000Y-79769000D01*
X149630000Y-79769000D02*
X152575000Y-79769000D01*
X144614000Y-79729000D02*
X147550000Y-79729000D01*
X149630000Y-79729000D02*
X152566000Y-79729000D01*
X144623000Y-79689000D02*
X147550000Y-79689000D01*
X149630000Y-79689000D02*
X152557000Y-79689000D01*
X144633000Y-79649000D02*
X147550000Y-79649000D01*
X149630000Y-79649000D02*
X152547000Y-79649000D01*
X144643000Y-79609000D02*
X147550000Y-79609000D01*
X149630000Y-79609000D02*
X152537000Y-79609000D01*
X144654000Y-79569000D02*
X147550000Y-79569000D01*
X149630000Y-79569000D02*
X152526000Y-79569000D01*
X144665000Y-79529000D02*
X147550000Y-79529000D01*
X149630000Y-79529000D02*
X152515000Y-79529000D01*
X144676000Y-79489000D02*
X147550000Y-79489000D01*
X149630000Y-79489000D02*
X152504000Y-79489000D01*
X144688000Y-79449000D02*
X147550000Y-79449000D01*
X149630000Y-79449000D02*
X152492000Y-79449000D01*
X144701000Y-79409000D02*
X147550000Y-79409000D01*
X149630000Y-79409000D02*
X152479000Y-79409000D01*
X144713000Y-79369000D02*
X147550000Y-79369000D01*
X149630000Y-79369000D02*
X152467000Y-79369000D01*
X144727000Y-79329000D02*
X147550000Y-79329000D01*
X149630000Y-79329000D02*
X152453000Y-79329000D01*
X144740000Y-79289000D02*
X147550000Y-79289000D01*
X149630000Y-79289000D02*
X152440000Y-79289000D01*
X144755000Y-79249000D02*
X147550000Y-79249000D01*
X149630000Y-79249000D02*
X152425000Y-79249000D01*
X144769000Y-79209000D02*
X147550000Y-79209000D01*
X149630000Y-79209000D02*
X152411000Y-79209000D01*
X144785000Y-79169000D02*
X147550000Y-79169000D01*
X149630000Y-79169000D02*
X152395000Y-79169000D01*
X144800000Y-79129000D02*
X147550000Y-79129000D01*
X149630000Y-79129000D02*
X152380000Y-79129000D01*
X144816000Y-79089000D02*
X147550000Y-79089000D01*
X149630000Y-79089000D02*
X152364000Y-79089000D01*
X144833000Y-79049000D02*
X147550000Y-79049000D01*
X149630000Y-79049000D02*
X152347000Y-79049000D01*
X144850000Y-79009000D02*
X147550000Y-79009000D01*
X149630000Y-79009000D02*
X152330000Y-79009000D01*
X144868000Y-78969000D02*
X147550000Y-78969000D01*
X149630000Y-78969000D02*
X152312000Y-78969000D01*
X144886000Y-78929000D02*
X147550000Y-78929000D01*
X149630000Y-78929000D02*
X152294000Y-78929000D01*
X144904000Y-78889000D02*
X147550000Y-78889000D01*
X149630000Y-78889000D02*
X152276000Y-78889000D01*
X144924000Y-78849000D02*
X147550000Y-78849000D01*
X149630000Y-78849000D02*
X152256000Y-78849000D01*
X144943000Y-78809000D02*
X147550000Y-78809000D01*
X149630000Y-78809000D02*
X152237000Y-78809000D01*
X144963000Y-78769000D02*
X147550000Y-78769000D01*
X149630000Y-78769000D02*
X152217000Y-78769000D01*
X144984000Y-78729000D02*
X147550000Y-78729000D01*
X149630000Y-78729000D02*
X152196000Y-78729000D01*
X145006000Y-78689000D02*
X147550000Y-78689000D01*
X149630000Y-78689000D02*
X152174000Y-78689000D01*
X145028000Y-78649000D02*
X147550000Y-78649000D01*
X149630000Y-78649000D02*
X152152000Y-78649000D01*
X145050000Y-78609000D02*
X147550000Y-78609000D01*
X149630000Y-78609000D02*
X152130000Y-78609000D01*
X145073000Y-78569000D02*
X147550000Y-78569000D01*
X149630000Y-78569000D02*
X152107000Y-78569000D01*
X145097000Y-78529000D02*
X147550000Y-78529000D01*
X149630000Y-78529000D02*
X152083000Y-78529000D01*
X145121000Y-78489000D02*
X147550000Y-78489000D01*
X149630000Y-78489000D02*
X152059000Y-78489000D01*
X145146000Y-78449000D02*
X147550000Y-78449000D01*
X149630000Y-78449000D02*
X152034000Y-78449000D01*
X145172000Y-78409000D02*
X147550000Y-78409000D01*
X149630000Y-78409000D02*
X152008000Y-78409000D01*
X145198000Y-78369000D02*
X147550000Y-78369000D01*
X149630000Y-78369000D02*
X151982000Y-78369000D01*
X145225000Y-78329000D02*
X147550000Y-78329000D01*
X149630000Y-78329000D02*
X151955000Y-78329000D01*
X145252000Y-78289000D02*
X147550000Y-78289000D01*
X149630000Y-78289000D02*
X151928000Y-78289000D01*
X145281000Y-78249000D02*
X147550000Y-78249000D01*
X149630000Y-78249000D02*
X151899000Y-78249000D01*
X145310000Y-78209000D02*
X147550000Y-78209000D01*
X149630000Y-78209000D02*
X151870000Y-78209000D01*
X145340000Y-78169000D02*
X147550000Y-78169000D01*
X149630000Y-78169000D02*
X151840000Y-78169000D01*
X145370000Y-78129000D02*
X147550000Y-78129000D01*
X149630000Y-78129000D02*
X151810000Y-78129000D01*
X145401000Y-78089000D02*
X147550000Y-78089000D01*
X149630000Y-78089000D02*
X151779000Y-78089000D01*
X145434000Y-78049000D02*
X147550000Y-78049000D01*
X149630000Y-78049000D02*
X151746000Y-78049000D01*
X145466000Y-78009000D02*
X147550000Y-78009000D01*
X149630000Y-78009000D02*
X151714000Y-78009000D01*
X145500000Y-77969000D02*
X147550000Y-77969000D01*
X149630000Y-77969000D02*
X151680000Y-77969000D01*
X145535000Y-77929000D02*
X147550000Y-77929000D01*
X149630000Y-77929000D02*
X151645000Y-77929000D01*
X145571000Y-77889000D02*
X147550000Y-77889000D01*
X149630000Y-77889000D02*
X151609000Y-77889000D01*
X145607000Y-77849000D02*
X147550000Y-77849000D01*
X149630000Y-77849000D02*
X151573000Y-77849000D01*
X145645000Y-77809000D02*
X147550000Y-77809000D01*
X149630000Y-77809000D02*
X151535000Y-77809000D01*
X145683000Y-77769000D02*
X147550000Y-77769000D01*
X149630000Y-77769000D02*
X151497000Y-77769000D01*
X145723000Y-77729000D02*
X147550000Y-77729000D01*
X149630000Y-77729000D02*
X151457000Y-77729000D01*
X145764000Y-77689000D02*
X151416000Y-77689000D01*
X145806000Y-77649000D02*
X151374000Y-77649000D01*
X145849000Y-77609000D02*
X151331000Y-77609000D01*
X145893000Y-77569000D02*
X151287000Y-77569000D01*
X145939000Y-77529000D02*
X151241000Y-77529000D01*
X145986000Y-77489000D02*
X151194000Y-77489000D01*
X146034000Y-77449000D02*
X151146000Y-77449000D01*
X146085000Y-77409000D02*
X151095000Y-77409000D01*
X146136000Y-77369000D02*
X151044000Y-77369000D01*
X146190000Y-77329000D02*
X150990000Y-77329000D01*
X146245000Y-77289000D02*
X150935000Y-77289000D01*
X146303000Y-77249000D02*
X150877000Y-77249000D01*
X146362000Y-77209000D02*
X150818000Y-77209000D01*
X146424000Y-77169000D02*
X150756000Y-77169000D01*
X146488000Y-77129000D02*
X150692000Y-77129000D01*
X146556000Y-77089000D02*
X150624000Y-77089000D01*
X146626000Y-77049000D02*
X150554000Y-77049000D01*
X146700000Y-77009000D02*
X150480000Y-77009000D01*
X146777000Y-76969000D02*
X150403000Y-76969000D01*
X146859000Y-76929000D02*
X150321000Y-76929000D01*
X146945000Y-76889000D02*
X150235000Y-76889000D01*
X147038000Y-76849000D02*
X150142000Y-76849000D01*
X147137000Y-76809000D02*
X150043000Y-76809000D01*
X147244000Y-76769000D02*
X149936000Y-76769000D01*
X147361000Y-76729000D02*
X149819000Y-76729000D01*
X147492000Y-76689000D02*
X149688000Y-76689000D01*
X147642000Y-76649000D02*
X149538000Y-76649000D01*
X147822000Y-76609000D02*
X149358000Y-76609000D01*
X148057000Y-76569000D02*
X149123000Y-76569000D01*
X146275000Y-85059698D02*
X146275000Y-84259698D01*
X145875000Y-84659698D02*
X146675000Y-84659698D01*
G04 #@! TO.C,C1*
X149404000Y-73794252D02*
X149404000Y-73271748D01*
X150824000Y-73794252D02*
X150824000Y-73271748D01*
D12*
G04 #@! TO.C,J3*
X154305000Y-102870000D02*
X161290000Y-102870000D01*
X154305000Y-93980000D02*
X154305000Y-102870000D01*
X161290000Y-93980000D02*
X154305000Y-93980000D01*
G04 #@! TO.C,J4*
X161290000Y-57150000D02*
X154305000Y-57150000D01*
X154305000Y-57150000D02*
X154305000Y-66040000D01*
X154305000Y-66040000D02*
X161290000Y-66040000D01*
G04 #@! TO.C,J5*
X133985000Y-57150000D02*
X127000000Y-57150000D01*
X133985000Y-66040000D02*
X133985000Y-57150000D01*
X127000000Y-66040000D02*
X133985000Y-66040000D01*
G04 #@! TO.C,J6*
X127000000Y-102870000D02*
X133985000Y-102870000D01*
X133985000Y-102870000D02*
X133985000Y-93980000D01*
X133985000Y-93980000D02*
X127000000Y-93980000D01*
D11*
G04 #@! TO.C,J2*
X158175000Y-73600000D02*
X155515000Y-73600000D01*
X158175000Y-83820000D02*
X158175000Y-73600000D01*
X155515000Y-83820000D02*
X155515000Y-73600000D01*
X158175000Y-83820000D02*
X155515000Y-83820000D01*
X158175000Y-85090000D02*
X158175000Y-86420000D01*
X158175000Y-86420000D02*
X156845000Y-86420000D01*
D12*
G04 #@! TO.C,J1*
X127254000Y-90043000D02*
X143129000Y-90043000D01*
X143129000Y-70993000D02*
X127254000Y-70993000D01*
X143129000Y-90043000D02*
X143129000Y-70993000D01*
X127254000Y-70993000D02*
X127254000Y-90043000D01*
D11*
G04 #@! TO.C,J8*
X153035000Y-101600000D02*
X142875000Y-101600000D01*
X153035000Y-102870000D02*
X153035000Y-95250000D01*
X153035000Y-95250000D02*
X142875000Y-95250000D01*
X142875000Y-95250000D02*
X142875000Y-102870000D01*
X142875000Y-102870000D02*
X153035000Y-102870000D01*
G04 #@! TO.C,C2*
X154761000Y-89034252D02*
X154761000Y-88511748D01*
X153341000Y-89034252D02*
X153341000Y-88511748D01*
G04 #@! TO.C,C3*
X146506000Y-88511748D02*
X146506000Y-89034252D01*
X145086000Y-88511748D02*
X145086000Y-89034252D01*
G04 #@! TO.C,J7*
X144426000Y-57082000D02*
X152246000Y-57082000D01*
X150446000Y-66402000D02*
X150446000Y-66832000D01*
X144426000Y-57082000D02*
X144426000Y-59032000D01*
X144426000Y-61252000D02*
X144426000Y-64482000D01*
X146226000Y-66402000D02*
X145146000Y-66402000D01*
X151526000Y-66402000D02*
X150446000Y-66402000D01*
X152246000Y-61252000D02*
X152246000Y-64482000D01*
X152246000Y-57082000D02*
X152246000Y-59032000D01*
G04 #@! TO.C,D1*
X144682000Y-94210000D02*
X153382000Y-94210000D01*
X153382000Y-94210000D02*
X153382000Y-91210000D01*
X153382000Y-91210000D02*
X144682000Y-91210000D01*
G04 #@! TO.C,Q1*
X145925000Y-72080000D02*
X145925000Y-73010000D01*
X145925000Y-75240000D02*
X145925000Y-74310000D01*
X145925000Y-75240000D02*
X148085000Y-75240000D01*
X145925000Y-72080000D02*
X147385000Y-72080000D01*
G04 #@! TO.C,U1*
X148187000Y-89988000D02*
X151787000Y-89988000D01*
X148148522Y-89976478D02*
G75*
G02X149987000Y-85538000I1838478J1838478D01*
G01*
X151825478Y-89976478D02*
G75*
G03X149987000Y-85538000I-1838478J1838478D01*
G01*
G04 #@! TO.C,R5*
X135628748Y-67870000D02*
X136151252Y-67870000D01*
X135628748Y-69290000D02*
X136151252Y-69290000D01*
G04 #@! TO.C,R1*
X151944000Y-74922748D02*
X151944000Y-75445252D01*
X153364000Y-74922748D02*
X153364000Y-75445252D01*
G04 #@! TO.C,R2*
X153364000Y-71112748D02*
X153364000Y-71635252D01*
X151944000Y-71112748D02*
X151944000Y-71635252D01*
G04 #@! TO.C,R3*
X140708748Y-69290000D02*
X141231252Y-69290000D01*
X140708748Y-67870000D02*
X141231252Y-67870000D01*
G04 #@! TO.C,R4*
X138168748Y-90476000D02*
X138691252Y-90476000D01*
X138168748Y-91896000D02*
X138691252Y-91896000D01*
G04 #@! TO.C,C4*
D12*
X148423333Y-76303142D02*
X148375714Y-76350761D01*
X148232857Y-76398380D01*
X148137619Y-76398380D01*
X147994761Y-76350761D01*
X147899523Y-76255523D01*
X147851904Y-76160285D01*
X147804285Y-75969809D01*
X147804285Y-75826952D01*
X147851904Y-75636476D01*
X147899523Y-75541238D01*
X147994761Y-75446000D01*
X148137619Y-75398380D01*
X148232857Y-75398380D01*
X148375714Y-75446000D01*
X148423333Y-75493619D01*
X149280476Y-75731714D02*
X149280476Y-76398380D01*
X149042380Y-75350761D02*
X148804285Y-76065047D01*
X149423333Y-76065047D01*
G04 #@! TO.C,C1*
X150471142Y-70778666D02*
X150518761Y-70826285D01*
X150566380Y-70969142D01*
X150566380Y-71064380D01*
X150518761Y-71207238D01*
X150423523Y-71302476D01*
X150328285Y-71350095D01*
X150137809Y-71397714D01*
X149994952Y-71397714D01*
X149804476Y-71350095D01*
X149709238Y-71302476D01*
X149614000Y-71207238D01*
X149566380Y-71064380D01*
X149566380Y-70969142D01*
X149614000Y-70826285D01*
X149661619Y-70778666D01*
X150566380Y-69826285D02*
X150566380Y-70397714D01*
X150566380Y-70112000D02*
X149566380Y-70112000D01*
X149709238Y-70207238D01*
X149804476Y-70302476D01*
X149852095Y-70397714D01*
G04 #@! TO.C,J3*
X159686666Y-92162380D02*
X159686666Y-92876666D01*
X159639047Y-93019523D01*
X159543809Y-93114761D01*
X159400952Y-93162380D01*
X159305714Y-93162380D01*
X160067619Y-92162380D02*
X160686666Y-92162380D01*
X160353333Y-92543333D01*
X160496190Y-92543333D01*
X160591428Y-92590952D01*
X160639047Y-92638571D01*
X160686666Y-92733809D01*
X160686666Y-92971904D01*
X160639047Y-93067142D01*
X160591428Y-93114761D01*
X160496190Y-93162380D01*
X160210476Y-93162380D01*
X160115238Y-93114761D01*
X160067619Y-93067142D01*
X155575095Y-95385000D02*
X155479857Y-95337380D01*
X155337000Y-95337380D01*
X155194142Y-95385000D01*
X155098904Y-95480238D01*
X155051285Y-95575476D01*
X155003666Y-95765952D01*
X155003666Y-95908809D01*
X155051285Y-96099285D01*
X155098904Y-96194523D01*
X155194142Y-96289761D01*
X155337000Y-96337380D01*
X155432238Y-96337380D01*
X155575095Y-96289761D01*
X155622714Y-96242142D01*
X155622714Y-95908809D01*
X155432238Y-95908809D01*
X156051285Y-96337380D02*
X156051285Y-95337380D01*
X156622714Y-96337380D01*
X156622714Y-95337380D01*
X157098904Y-96337380D02*
X157098904Y-95337380D01*
X157337000Y-95337380D01*
X157479857Y-95385000D01*
X157575095Y-95480238D01*
X157622714Y-95575476D01*
X157670333Y-95765952D01*
X157670333Y-95908809D01*
X157622714Y-96099285D01*
X157575095Y-96194523D01*
X157479857Y-96289761D01*
X157337000Y-96337380D01*
X157098904Y-96337380D01*
X154710000Y-98877380D02*
X154710000Y-97877380D01*
X154948095Y-97877380D01*
X155090952Y-97925000D01*
X155186190Y-98020238D01*
X155233809Y-98115476D01*
X155281428Y-98305952D01*
X155281428Y-98448809D01*
X155233809Y-98639285D01*
X155186190Y-98734523D01*
X155090952Y-98829761D01*
X154948095Y-98877380D01*
X154710000Y-98877380D01*
X155662380Y-98591666D02*
X156138571Y-98591666D01*
X155567142Y-98877380D02*
X155900476Y-97877380D01*
X156233809Y-98877380D01*
X156424285Y-97877380D02*
X156995714Y-97877380D01*
X156710000Y-98877380D02*
X156710000Y-97877380D01*
X157281428Y-98591666D02*
X157757619Y-98591666D01*
X157186190Y-98877380D02*
X157519523Y-97877380D01*
X157852857Y-98877380D01*
X156654523Y-100417380D02*
X156178333Y-100417380D01*
X156130714Y-100893571D01*
X156178333Y-100845952D01*
X156273571Y-100798333D01*
X156511666Y-100798333D01*
X156606904Y-100845952D01*
X156654523Y-100893571D01*
X156702142Y-100988809D01*
X156702142Y-101226904D01*
X156654523Y-101322142D01*
X156606904Y-101369761D01*
X156511666Y-101417380D01*
X156273571Y-101417380D01*
X156178333Y-101369761D01*
X156130714Y-101322142D01*
X156987857Y-100417380D02*
X157321190Y-101417380D01*
X157654523Y-100417380D01*
G04 #@! TO.C,J4*
X159686666Y-66508380D02*
X159686666Y-67222666D01*
X159639047Y-67365523D01*
X159543809Y-67460761D01*
X159400952Y-67508380D01*
X159305714Y-67508380D01*
X160591428Y-66841714D02*
X160591428Y-67508380D01*
X160353333Y-66460761D02*
X160115238Y-67175047D01*
X160734285Y-67175047D01*
X156654523Y-63587380D02*
X156178333Y-63587380D01*
X156130714Y-64063571D01*
X156178333Y-64015952D01*
X156273571Y-63968333D01*
X156511666Y-63968333D01*
X156606904Y-64015952D01*
X156654523Y-64063571D01*
X156702142Y-64158809D01*
X156702142Y-64396904D01*
X156654523Y-64492142D01*
X156606904Y-64539761D01*
X156511666Y-64587380D01*
X156273571Y-64587380D01*
X156178333Y-64539761D01*
X156130714Y-64492142D01*
X156987857Y-63587380D02*
X157321190Y-64587380D01*
X157654523Y-63587380D01*
X154710000Y-62047380D02*
X154710000Y-61047380D01*
X154948095Y-61047380D01*
X155090952Y-61095000D01*
X155186190Y-61190238D01*
X155233809Y-61285476D01*
X155281428Y-61475952D01*
X155281428Y-61618809D01*
X155233809Y-61809285D01*
X155186190Y-61904523D01*
X155090952Y-61999761D01*
X154948095Y-62047380D01*
X154710000Y-62047380D01*
X155662380Y-61761666D02*
X156138571Y-61761666D01*
X155567142Y-62047380D02*
X155900476Y-61047380D01*
X156233809Y-62047380D01*
X156424285Y-61047380D02*
X156995714Y-61047380D01*
X156710000Y-62047380D02*
X156710000Y-61047380D01*
X157281428Y-61761666D02*
X157757619Y-61761666D01*
X157186190Y-62047380D02*
X157519523Y-61047380D01*
X157852857Y-62047380D01*
X155575095Y-58555000D02*
X155479857Y-58507380D01*
X155337000Y-58507380D01*
X155194142Y-58555000D01*
X155098904Y-58650238D01*
X155051285Y-58745476D01*
X155003666Y-58935952D01*
X155003666Y-59078809D01*
X155051285Y-59269285D01*
X155098904Y-59364523D01*
X155194142Y-59459761D01*
X155337000Y-59507380D01*
X155432238Y-59507380D01*
X155575095Y-59459761D01*
X155622714Y-59412142D01*
X155622714Y-59078809D01*
X155432238Y-59078809D01*
X156051285Y-59507380D02*
X156051285Y-58507380D01*
X156622714Y-59507380D01*
X156622714Y-58507380D01*
X157098904Y-59507380D02*
X157098904Y-58507380D01*
X157337000Y-58507380D01*
X157479857Y-58555000D01*
X157575095Y-58650238D01*
X157622714Y-58745476D01*
X157670333Y-58935952D01*
X157670333Y-59078809D01*
X157622714Y-59269285D01*
X157575095Y-59364523D01*
X157479857Y-59459761D01*
X157337000Y-59507380D01*
X157098904Y-59507380D01*
G04 #@! TO.C,J5*
X128571666Y-66762380D02*
X128571666Y-67476666D01*
X128524047Y-67619523D01*
X128428809Y-67714761D01*
X128285952Y-67762380D01*
X128190714Y-67762380D01*
X129524047Y-66762380D02*
X129047857Y-66762380D01*
X129000238Y-67238571D01*
X129047857Y-67190952D01*
X129143095Y-67143333D01*
X129381190Y-67143333D01*
X129476428Y-67190952D01*
X129524047Y-67238571D01*
X129571666Y-67333809D01*
X129571666Y-67571904D01*
X129524047Y-67667142D01*
X129476428Y-67714761D01*
X129381190Y-67762380D01*
X129143095Y-67762380D01*
X129047857Y-67714761D01*
X129000238Y-67667142D01*
X131191095Y-63635000D02*
X131095857Y-63587380D01*
X130953000Y-63587380D01*
X130810142Y-63635000D01*
X130714904Y-63730238D01*
X130667285Y-63825476D01*
X130619666Y-64015952D01*
X130619666Y-64158809D01*
X130667285Y-64349285D01*
X130714904Y-64444523D01*
X130810142Y-64539761D01*
X130953000Y-64587380D01*
X131048238Y-64587380D01*
X131191095Y-64539761D01*
X131238714Y-64492142D01*
X131238714Y-64158809D01*
X131048238Y-64158809D01*
X131667285Y-64587380D02*
X131667285Y-63587380D01*
X132238714Y-64587380D01*
X132238714Y-63587380D01*
X132714904Y-64587380D02*
X132714904Y-63587380D01*
X132953000Y-63587380D01*
X133095857Y-63635000D01*
X133191095Y-63730238D01*
X133238714Y-63825476D01*
X133286333Y-64015952D01*
X133286333Y-64158809D01*
X133238714Y-64349285D01*
X133191095Y-64444523D01*
X133095857Y-64539761D01*
X132953000Y-64587380D01*
X132714904Y-64587380D01*
X130580000Y-62047380D02*
X130580000Y-61047380D01*
X130818095Y-61047380D01*
X130960952Y-61095000D01*
X131056190Y-61190238D01*
X131103809Y-61285476D01*
X131151428Y-61475952D01*
X131151428Y-61618809D01*
X131103809Y-61809285D01*
X131056190Y-61904523D01*
X130960952Y-61999761D01*
X130818095Y-62047380D01*
X130580000Y-62047380D01*
X131532380Y-61761666D02*
X132008571Y-61761666D01*
X131437142Y-62047380D02*
X131770476Y-61047380D01*
X132103809Y-62047380D01*
X132294285Y-61047380D02*
X132865714Y-61047380D01*
X132580000Y-62047380D02*
X132580000Y-61047380D01*
X133151428Y-61761666D02*
X133627619Y-61761666D01*
X133056190Y-62047380D02*
X133389523Y-61047380D01*
X133722857Y-62047380D01*
X131254523Y-58507380D02*
X130778333Y-58507380D01*
X130730714Y-58983571D01*
X130778333Y-58935952D01*
X130873571Y-58888333D01*
X131111666Y-58888333D01*
X131206904Y-58935952D01*
X131254523Y-58983571D01*
X131302142Y-59078809D01*
X131302142Y-59316904D01*
X131254523Y-59412142D01*
X131206904Y-59459761D01*
X131111666Y-59507380D01*
X130873571Y-59507380D01*
X130778333Y-59459761D01*
X130730714Y-59412142D01*
X131587857Y-58507380D02*
X131921190Y-59507380D01*
X132254523Y-58507380D01*
G04 #@! TO.C,J6*
X127936666Y-92162380D02*
X127936666Y-92876666D01*
X127889047Y-93019523D01*
X127793809Y-93114761D01*
X127650952Y-93162380D01*
X127555714Y-93162380D01*
X128841428Y-92162380D02*
X128650952Y-92162380D01*
X128555714Y-92210000D01*
X128508095Y-92257619D01*
X128412857Y-92400476D01*
X128365238Y-92590952D01*
X128365238Y-92971904D01*
X128412857Y-93067142D01*
X128460476Y-93114761D01*
X128555714Y-93162380D01*
X128746190Y-93162380D01*
X128841428Y-93114761D01*
X128889047Y-93067142D01*
X128936666Y-92971904D01*
X128936666Y-92733809D01*
X128889047Y-92638571D01*
X128841428Y-92590952D01*
X128746190Y-92543333D01*
X128555714Y-92543333D01*
X128460476Y-92590952D01*
X128412857Y-92638571D01*
X128365238Y-92733809D01*
X131254523Y-95337380D02*
X130778333Y-95337380D01*
X130730714Y-95813571D01*
X130778333Y-95765952D01*
X130873571Y-95718333D01*
X131111666Y-95718333D01*
X131206904Y-95765952D01*
X131254523Y-95813571D01*
X131302142Y-95908809D01*
X131302142Y-96146904D01*
X131254523Y-96242142D01*
X131206904Y-96289761D01*
X131111666Y-96337380D01*
X130873571Y-96337380D01*
X130778333Y-96289761D01*
X130730714Y-96242142D01*
X131587857Y-95337380D02*
X131921190Y-96337380D01*
X132254523Y-95337380D01*
X130580000Y-98877380D02*
X130580000Y-97877380D01*
X130818095Y-97877380D01*
X130960952Y-97925000D01*
X131056190Y-98020238D01*
X131103809Y-98115476D01*
X131151428Y-98305952D01*
X131151428Y-98448809D01*
X131103809Y-98639285D01*
X131056190Y-98734523D01*
X130960952Y-98829761D01*
X130818095Y-98877380D01*
X130580000Y-98877380D01*
X131532380Y-98591666D02*
X132008571Y-98591666D01*
X131437142Y-98877380D02*
X131770476Y-97877380D01*
X132103809Y-98877380D01*
X132294285Y-97877380D02*
X132865714Y-97877380D01*
X132580000Y-98877380D02*
X132580000Y-97877380D01*
X133151428Y-98591666D02*
X133627619Y-98591666D01*
X133056190Y-98877380D02*
X133389523Y-97877380D01*
X133722857Y-98877380D01*
X131191095Y-100465000D02*
X131095857Y-100417380D01*
X130953000Y-100417380D01*
X130810142Y-100465000D01*
X130714904Y-100560238D01*
X130667285Y-100655476D01*
X130619666Y-100845952D01*
X130619666Y-100988809D01*
X130667285Y-101179285D01*
X130714904Y-101274523D01*
X130810142Y-101369761D01*
X130953000Y-101417380D01*
X131048238Y-101417380D01*
X131191095Y-101369761D01*
X131238714Y-101322142D01*
X131238714Y-100988809D01*
X131048238Y-100988809D01*
X131667285Y-101417380D02*
X131667285Y-100417380D01*
X132238714Y-101417380D01*
X132238714Y-100417380D01*
X132714904Y-101417380D02*
X132714904Y-100417380D01*
X132953000Y-100417380D01*
X133095857Y-100465000D01*
X133191095Y-100560238D01*
X133238714Y-100655476D01*
X133286333Y-100845952D01*
X133286333Y-100988809D01*
X133238714Y-101179285D01*
X133191095Y-101274523D01*
X133095857Y-101369761D01*
X132953000Y-101417380D01*
X132714904Y-101417380D01*
G04 #@! TO.C,J2*
X158924666Y-85050380D02*
X158924666Y-85764666D01*
X158877047Y-85907523D01*
X158781809Y-86002761D01*
X158638952Y-86050380D01*
X158543714Y-86050380D01*
X159353238Y-85145619D02*
X159400857Y-85098000D01*
X159496095Y-85050380D01*
X159734190Y-85050380D01*
X159829428Y-85098000D01*
X159877047Y-85145619D01*
X159924666Y-85240857D01*
X159924666Y-85336095D01*
X159877047Y-85478952D01*
X159305619Y-86050380D01*
X159924666Y-86050380D01*
G04 #@! TO.C,J1*
X143470380Y-72088333D02*
X144184666Y-72088333D01*
X144327523Y-72135952D01*
X144422761Y-72231190D01*
X144470380Y-72374047D01*
X144470380Y-72469285D01*
X144470380Y-71088333D02*
X144470380Y-71659761D01*
X144470380Y-71374047D02*
X143470380Y-71374047D01*
X143613238Y-71469285D01*
X143708476Y-71564523D01*
X143756095Y-71659761D01*
G04 #@! TO.C,J8*
X141271666Y-95337380D02*
X141271666Y-96051666D01*
X141224047Y-96194523D01*
X141128809Y-96289761D01*
X140985952Y-96337380D01*
X140890714Y-96337380D01*
X141890714Y-95765952D02*
X141795476Y-95718333D01*
X141747857Y-95670714D01*
X141700238Y-95575476D01*
X141700238Y-95527857D01*
X141747857Y-95432619D01*
X141795476Y-95385000D01*
X141890714Y-95337380D01*
X142081190Y-95337380D01*
X142176428Y-95385000D01*
X142224047Y-95432619D01*
X142271666Y-95527857D01*
X142271666Y-95575476D01*
X142224047Y-95670714D01*
X142176428Y-95718333D01*
X142081190Y-95765952D01*
X141890714Y-95765952D01*
X141795476Y-95813571D01*
X141747857Y-95861190D01*
X141700238Y-95956428D01*
X141700238Y-96146904D01*
X141747857Y-96242142D01*
X141795476Y-96289761D01*
X141890714Y-96337380D01*
X142081190Y-96337380D01*
X142176428Y-96289761D01*
X142224047Y-96242142D01*
X142271666Y-96146904D01*
X142271666Y-95956428D01*
X142224047Y-95861190D01*
X142176428Y-95813571D01*
X142081190Y-95765952D01*
G04 #@! TO.C,C2*
X156059142Y-88304666D02*
X156106761Y-88352285D01*
X156154380Y-88495142D01*
X156154380Y-88590380D01*
X156106761Y-88733238D01*
X156011523Y-88828476D01*
X155916285Y-88876095D01*
X155725809Y-88923714D01*
X155582952Y-88923714D01*
X155392476Y-88876095D01*
X155297238Y-88828476D01*
X155202000Y-88733238D01*
X155154380Y-88590380D01*
X155154380Y-88495142D01*
X155202000Y-88352285D01*
X155249619Y-88304666D01*
X155249619Y-87923714D02*
X155202000Y-87876095D01*
X155154380Y-87780857D01*
X155154380Y-87542761D01*
X155202000Y-87447523D01*
X155249619Y-87399904D01*
X155344857Y-87352285D01*
X155440095Y-87352285D01*
X155582952Y-87399904D01*
X156154380Y-87971333D01*
X156154380Y-87352285D01*
G04 #@! TO.C,C3*
X144629142Y-88558666D02*
X144676761Y-88606285D01*
X144724380Y-88749142D01*
X144724380Y-88844380D01*
X144676761Y-88987238D01*
X144581523Y-89082476D01*
X144486285Y-89130095D01*
X144295809Y-89177714D01*
X144152952Y-89177714D01*
X143962476Y-89130095D01*
X143867238Y-89082476D01*
X143772000Y-88987238D01*
X143724380Y-88844380D01*
X143724380Y-88749142D01*
X143772000Y-88606285D01*
X143819619Y-88558666D01*
X143724380Y-88225333D02*
X143724380Y-87606285D01*
X144105333Y-87939619D01*
X144105333Y-87796761D01*
X144152952Y-87701523D01*
X144200571Y-87653904D01*
X144295809Y-87606285D01*
X144533904Y-87606285D01*
X144629142Y-87653904D01*
X144676761Y-87701523D01*
X144724380Y-87796761D01*
X144724380Y-88082476D01*
X144676761Y-88177714D01*
X144629142Y-88225333D01*
G04 #@! TO.C,J7*
X148002666Y-67444380D02*
X148002666Y-68158666D01*
X147955047Y-68301523D01*
X147859809Y-68396761D01*
X147716952Y-68444380D01*
X147621714Y-68444380D01*
X148383619Y-67444380D02*
X149050285Y-67444380D01*
X148621714Y-68444380D01*
G04 #@! TO.C,D1*
X140866904Y-93162380D02*
X140866904Y-92162380D01*
X141105000Y-92162380D01*
X141247857Y-92210000D01*
X141343095Y-92305238D01*
X141390714Y-92400476D01*
X141438333Y-92590952D01*
X141438333Y-92733809D01*
X141390714Y-92924285D01*
X141343095Y-93019523D01*
X141247857Y-93114761D01*
X141105000Y-93162380D01*
X140866904Y-93162380D01*
X142390714Y-93162380D02*
X141819285Y-93162380D01*
X142105000Y-93162380D02*
X142105000Y-92162380D01*
X142009761Y-92305238D01*
X141914523Y-92400476D01*
X141819285Y-92448095D01*
G04 #@! TO.C,Q1*
X146970761Y-71667619D02*
X146875523Y-71620000D01*
X146780285Y-71524761D01*
X146637428Y-71381904D01*
X146542190Y-71334285D01*
X146446952Y-71334285D01*
X146494571Y-71572380D02*
X146399333Y-71524761D01*
X146304095Y-71429523D01*
X146256476Y-71239047D01*
X146256476Y-70905714D01*
X146304095Y-70715238D01*
X146399333Y-70620000D01*
X146494571Y-70572380D01*
X146685047Y-70572380D01*
X146780285Y-70620000D01*
X146875523Y-70715238D01*
X146923142Y-70905714D01*
X146923142Y-71239047D01*
X146875523Y-71429523D01*
X146780285Y-71524761D01*
X146685047Y-71572380D01*
X146494571Y-71572380D01*
X147875523Y-71572380D02*
X147304095Y-71572380D01*
X147589809Y-71572380D02*
X147589809Y-70572380D01*
X147494571Y-70715238D01*
X147399333Y-70810476D01*
X147304095Y-70858095D01*
G04 #@! TO.C,U1*
X151384095Y-84542380D02*
X151384095Y-85351904D01*
X151431714Y-85447142D01*
X151479333Y-85494761D01*
X151574571Y-85542380D01*
X151765047Y-85542380D01*
X151860285Y-85494761D01*
X151907904Y-85447142D01*
X151955523Y-85351904D01*
X151955523Y-84542380D01*
X152955523Y-85542380D02*
X152384095Y-85542380D01*
X152669809Y-85542380D02*
X152669809Y-84542380D01*
X152574571Y-84685238D01*
X152479333Y-84780476D01*
X152384095Y-84828095D01*
G04 #@! TO.C,R5*
X135723333Y-67382380D02*
X135390000Y-66906190D01*
X135151904Y-67382380D02*
X135151904Y-66382380D01*
X135532857Y-66382380D01*
X135628095Y-66430000D01*
X135675714Y-66477619D01*
X135723333Y-66572857D01*
X135723333Y-66715714D01*
X135675714Y-66810952D01*
X135628095Y-66858571D01*
X135532857Y-66906190D01*
X135151904Y-66906190D01*
X136628095Y-66382380D02*
X136151904Y-66382380D01*
X136104285Y-66858571D01*
X136151904Y-66810952D01*
X136247142Y-66763333D01*
X136485238Y-66763333D01*
X136580476Y-66810952D01*
X136628095Y-66858571D01*
X136675714Y-66953809D01*
X136675714Y-67191904D01*
X136628095Y-67287142D01*
X136580476Y-67334761D01*
X136485238Y-67382380D01*
X136247142Y-67382380D01*
X136151904Y-67334761D01*
X136104285Y-67287142D01*
G04 #@! TO.C,R1*
X154884380Y-75350666D02*
X154408190Y-75684000D01*
X154884380Y-75922095D02*
X153884380Y-75922095D01*
X153884380Y-75541142D01*
X153932000Y-75445904D01*
X153979619Y-75398285D01*
X154074857Y-75350666D01*
X154217714Y-75350666D01*
X154312952Y-75398285D01*
X154360571Y-75445904D01*
X154408190Y-75541142D01*
X154408190Y-75922095D01*
X154884380Y-74398285D02*
X154884380Y-74969714D01*
X154884380Y-74684000D02*
X153884380Y-74684000D01*
X154027238Y-74779238D01*
X154122476Y-74874476D01*
X154170095Y-74969714D01*
G04 #@! TO.C,R2*
X154884380Y-71667666D02*
X154408190Y-72001000D01*
X154884380Y-72239095D02*
X153884380Y-72239095D01*
X153884380Y-71858142D01*
X153932000Y-71762904D01*
X153979619Y-71715285D01*
X154074857Y-71667666D01*
X154217714Y-71667666D01*
X154312952Y-71715285D01*
X154360571Y-71762904D01*
X154408190Y-71858142D01*
X154408190Y-72239095D01*
X153979619Y-71286714D02*
X153932000Y-71239095D01*
X153884380Y-71143857D01*
X153884380Y-70905761D01*
X153932000Y-70810523D01*
X153979619Y-70762904D01*
X154074857Y-70715285D01*
X154170095Y-70715285D01*
X154312952Y-70762904D01*
X154884380Y-71334333D01*
X154884380Y-70715285D01*
G04 #@! TO.C,R3*
X140803333Y-67382380D02*
X140470000Y-66906190D01*
X140231904Y-67382380D02*
X140231904Y-66382380D01*
X140612857Y-66382380D01*
X140708095Y-66430000D01*
X140755714Y-66477619D01*
X140803333Y-66572857D01*
X140803333Y-66715714D01*
X140755714Y-66810952D01*
X140708095Y-66858571D01*
X140612857Y-66906190D01*
X140231904Y-66906190D01*
X141136666Y-66382380D02*
X141755714Y-66382380D01*
X141422380Y-66763333D01*
X141565238Y-66763333D01*
X141660476Y-66810952D01*
X141708095Y-66858571D01*
X141755714Y-66953809D01*
X141755714Y-67191904D01*
X141708095Y-67287142D01*
X141660476Y-67334761D01*
X141565238Y-67382380D01*
X141279523Y-67382380D01*
X141184285Y-67334761D01*
X141136666Y-67287142D01*
G04 #@! TO.C,R4*
X138263333Y-93670380D02*
X137930000Y-93194190D01*
X137691904Y-93670380D02*
X137691904Y-92670380D01*
X138072857Y-92670380D01*
X138168095Y-92718000D01*
X138215714Y-92765619D01*
X138263333Y-92860857D01*
X138263333Y-93003714D01*
X138215714Y-93098952D01*
X138168095Y-93146571D01*
X138072857Y-93194190D01*
X137691904Y-93194190D01*
X139120476Y-93003714D02*
X139120476Y-93670380D01*
X138882380Y-92622761D02*
X138644285Y-93337047D01*
X139263333Y-93337047D01*
G04 #@! TD*
M02*
