G04 #@! TF.GenerationSoftware,KiCad,Pcbnew,5.0.1+dfsg1-2*
G04 #@! TF.CreationDate,2018-12-02T20:23:19+01:00*
G04 #@! TF.ProjectId,rj45-sk6812-adapter,726A34352D736B363831322D61646170,rev?*
G04 #@! TF.SameCoordinates,Original*
G04 #@! TF.FileFunction,Legend,Top*
G04 #@! TF.FilePolarity,Positive*
%FSLAX46Y46*%
G04 Gerber Fmt 4.6, Leading zero omitted, Abs format (unit mm)*
G04 Created by KiCad (PCBNEW 5.0.1+dfsg1-2) date So 02 Dez 2018 20:23:19 CET*
%MOMM*%
%LPD*%
G01*
G04 APERTURE LIST*
%ADD10C,0.200000*%
%ADD11C,0.120000*%
%ADD12C,0.150000*%
G04 APERTURE END LIST*
D10*
X141097000Y-99060000D02*
X142621000Y-99060000D01*
X141859000Y-98298000D02*
X141859000Y-99822000D01*
D11*
G04 #@! TO.C,C1*
X149404000Y-73794252D02*
X149404000Y-73271748D01*
X150824000Y-73794252D02*
X150824000Y-73271748D01*
D12*
G04 #@! TO.C,J3*
X154305000Y-102870000D02*
X161290000Y-102870000D01*
X154305000Y-93980000D02*
X154305000Y-102870000D01*
X161290000Y-93980000D02*
X154305000Y-93980000D01*
G04 #@! TO.C,J4*
X161290000Y-57150000D02*
X154305000Y-57150000D01*
X154305000Y-57150000D02*
X154305000Y-66040000D01*
X154305000Y-66040000D02*
X161290000Y-66040000D01*
G04 #@! TO.C,J5*
X133985000Y-57150000D02*
X127000000Y-57150000D01*
X133985000Y-66040000D02*
X133985000Y-57150000D01*
X127000000Y-66040000D02*
X133985000Y-66040000D01*
G04 #@! TO.C,J6*
X127000000Y-102870000D02*
X133985000Y-102870000D01*
X133985000Y-102870000D02*
X133985000Y-93980000D01*
X133985000Y-93980000D02*
X127000000Y-93980000D01*
D11*
G04 #@! TO.C,J2*
X158175000Y-73600000D02*
X155515000Y-73600000D01*
X158175000Y-83820000D02*
X158175000Y-73600000D01*
X155515000Y-83820000D02*
X155515000Y-73600000D01*
X158175000Y-83820000D02*
X155515000Y-83820000D01*
X158175000Y-85090000D02*
X158175000Y-86420000D01*
X158175000Y-86420000D02*
X156845000Y-86420000D01*
D12*
G04 #@! TO.C,J1*
X127254000Y-90043000D02*
X143129000Y-90043000D01*
X143129000Y-70993000D02*
X127254000Y-70993000D01*
X143129000Y-90043000D02*
X143129000Y-70993000D01*
X127254000Y-70993000D02*
X127254000Y-90043000D01*
D11*
G04 #@! TO.C,J8*
X153035000Y-101600000D02*
X142875000Y-101600000D01*
X153035000Y-102870000D02*
X153035000Y-95250000D01*
X153035000Y-95250000D02*
X142875000Y-95250000D01*
X142875000Y-95250000D02*
X142875000Y-102870000D01*
X142875000Y-102870000D02*
X153035000Y-102870000D01*
G04 #@! TO.C,C2*
X154761000Y-89034252D02*
X154761000Y-88511748D01*
X153341000Y-89034252D02*
X153341000Y-88511748D01*
G04 #@! TO.C,C3*
X146506000Y-88511748D02*
X146506000Y-89034252D01*
X145086000Y-88511748D02*
X145086000Y-89034252D01*
G04 #@! TO.C,J7*
X144426000Y-57082000D02*
X152246000Y-57082000D01*
X150446000Y-66402000D02*
X150446000Y-66832000D01*
X144426000Y-57082000D02*
X144426000Y-59032000D01*
X144426000Y-61252000D02*
X144426000Y-64482000D01*
X146226000Y-66402000D02*
X145146000Y-66402000D01*
X151526000Y-66402000D02*
X150446000Y-66402000D01*
X152246000Y-61252000D02*
X152246000Y-64482000D01*
X152246000Y-57082000D02*
X152246000Y-59032000D01*
G04 #@! TO.C,D1*
X144682000Y-94210000D02*
X153382000Y-94210000D01*
X153382000Y-94210000D02*
X153382000Y-91210000D01*
X153382000Y-91210000D02*
X144682000Y-91210000D01*
G04 #@! TO.C,Q1*
X145925000Y-72080000D02*
X145925000Y-73010000D01*
X145925000Y-75240000D02*
X145925000Y-74310000D01*
X145925000Y-75240000D02*
X148085000Y-75240000D01*
X145925000Y-72080000D02*
X147385000Y-72080000D01*
G04 #@! TO.C,U1*
X148187000Y-89988000D02*
X151787000Y-89988000D01*
X148148522Y-89976478D02*
G75*
G02X149987000Y-85538000I1838478J1838478D01*
G01*
X151825478Y-89976478D02*
G75*
G03X149987000Y-85538000I-1838478J1838478D01*
G01*
G04 #@! TO.C,R5*
X135628748Y-67870000D02*
X136151252Y-67870000D01*
X135628748Y-69290000D02*
X136151252Y-69290000D01*
G04 #@! TO.C,R1*
X151944000Y-74922748D02*
X151944000Y-75445252D01*
X153364000Y-74922748D02*
X153364000Y-75445252D01*
G04 #@! TO.C,R2*
X153364000Y-71112748D02*
X153364000Y-71635252D01*
X151944000Y-71112748D02*
X151944000Y-71635252D01*
G04 #@! TO.C,R3*
X140708748Y-69290000D02*
X141231252Y-69290000D01*
X140708748Y-67870000D02*
X141231252Y-67870000D01*
G04 #@! TO.C,R4*
X138168748Y-90476000D02*
X138691252Y-90476000D01*
X138168748Y-91896000D02*
X138691252Y-91896000D01*
G04 #@! TO.C,C1*
D12*
X150471142Y-76493666D02*
X150518761Y-76541285D01*
X150566380Y-76684142D01*
X150566380Y-76779380D01*
X150518761Y-76922238D01*
X150423523Y-77017476D01*
X150328285Y-77065095D01*
X150137809Y-77112714D01*
X149994952Y-77112714D01*
X149804476Y-77065095D01*
X149709238Y-77017476D01*
X149614000Y-76922238D01*
X149566380Y-76779380D01*
X149566380Y-76684142D01*
X149614000Y-76541285D01*
X149661619Y-76493666D01*
X150566380Y-75541285D02*
X150566380Y-76112714D01*
X150566380Y-75827000D02*
X149566380Y-75827000D01*
X149709238Y-75922238D01*
X149804476Y-76017476D01*
X149852095Y-76112714D01*
G04 #@! TO.C,J3*
X159686666Y-92162380D02*
X159686666Y-92876666D01*
X159639047Y-93019523D01*
X159543809Y-93114761D01*
X159400952Y-93162380D01*
X159305714Y-93162380D01*
X160067619Y-92162380D02*
X160686666Y-92162380D01*
X160353333Y-92543333D01*
X160496190Y-92543333D01*
X160591428Y-92590952D01*
X160639047Y-92638571D01*
X160686666Y-92733809D01*
X160686666Y-92971904D01*
X160639047Y-93067142D01*
X160591428Y-93114761D01*
X160496190Y-93162380D01*
X160210476Y-93162380D01*
X160115238Y-93114761D01*
X160067619Y-93067142D01*
X155575095Y-95385000D02*
X155479857Y-95337380D01*
X155337000Y-95337380D01*
X155194142Y-95385000D01*
X155098904Y-95480238D01*
X155051285Y-95575476D01*
X155003666Y-95765952D01*
X155003666Y-95908809D01*
X155051285Y-96099285D01*
X155098904Y-96194523D01*
X155194142Y-96289761D01*
X155337000Y-96337380D01*
X155432238Y-96337380D01*
X155575095Y-96289761D01*
X155622714Y-96242142D01*
X155622714Y-95908809D01*
X155432238Y-95908809D01*
X156051285Y-96337380D02*
X156051285Y-95337380D01*
X156622714Y-96337380D01*
X156622714Y-95337380D01*
X157098904Y-96337380D02*
X157098904Y-95337380D01*
X157337000Y-95337380D01*
X157479857Y-95385000D01*
X157575095Y-95480238D01*
X157622714Y-95575476D01*
X157670333Y-95765952D01*
X157670333Y-95908809D01*
X157622714Y-96099285D01*
X157575095Y-96194523D01*
X157479857Y-96289761D01*
X157337000Y-96337380D01*
X157098904Y-96337380D01*
X154710000Y-98877380D02*
X154710000Y-97877380D01*
X154948095Y-97877380D01*
X155090952Y-97925000D01*
X155186190Y-98020238D01*
X155233809Y-98115476D01*
X155281428Y-98305952D01*
X155281428Y-98448809D01*
X155233809Y-98639285D01*
X155186190Y-98734523D01*
X155090952Y-98829761D01*
X154948095Y-98877380D01*
X154710000Y-98877380D01*
X155662380Y-98591666D02*
X156138571Y-98591666D01*
X155567142Y-98877380D02*
X155900476Y-97877380D01*
X156233809Y-98877380D01*
X156424285Y-97877380D02*
X156995714Y-97877380D01*
X156710000Y-98877380D02*
X156710000Y-97877380D01*
X157281428Y-98591666D02*
X157757619Y-98591666D01*
X157186190Y-98877380D02*
X157519523Y-97877380D01*
X157852857Y-98877380D01*
X156654523Y-100417380D02*
X156178333Y-100417380D01*
X156130714Y-100893571D01*
X156178333Y-100845952D01*
X156273571Y-100798333D01*
X156511666Y-100798333D01*
X156606904Y-100845952D01*
X156654523Y-100893571D01*
X156702142Y-100988809D01*
X156702142Y-101226904D01*
X156654523Y-101322142D01*
X156606904Y-101369761D01*
X156511666Y-101417380D01*
X156273571Y-101417380D01*
X156178333Y-101369761D01*
X156130714Y-101322142D01*
X156987857Y-100417380D02*
X157321190Y-101417380D01*
X157654523Y-100417380D01*
G04 #@! TO.C,J4*
X159686666Y-66508380D02*
X159686666Y-67222666D01*
X159639047Y-67365523D01*
X159543809Y-67460761D01*
X159400952Y-67508380D01*
X159305714Y-67508380D01*
X160591428Y-66841714D02*
X160591428Y-67508380D01*
X160353333Y-66460761D02*
X160115238Y-67175047D01*
X160734285Y-67175047D01*
X156654523Y-63587380D02*
X156178333Y-63587380D01*
X156130714Y-64063571D01*
X156178333Y-64015952D01*
X156273571Y-63968333D01*
X156511666Y-63968333D01*
X156606904Y-64015952D01*
X156654523Y-64063571D01*
X156702142Y-64158809D01*
X156702142Y-64396904D01*
X156654523Y-64492142D01*
X156606904Y-64539761D01*
X156511666Y-64587380D01*
X156273571Y-64587380D01*
X156178333Y-64539761D01*
X156130714Y-64492142D01*
X156987857Y-63587380D02*
X157321190Y-64587380D01*
X157654523Y-63587380D01*
X154710000Y-62047380D02*
X154710000Y-61047380D01*
X154948095Y-61047380D01*
X155090952Y-61095000D01*
X155186190Y-61190238D01*
X155233809Y-61285476D01*
X155281428Y-61475952D01*
X155281428Y-61618809D01*
X155233809Y-61809285D01*
X155186190Y-61904523D01*
X155090952Y-61999761D01*
X154948095Y-62047380D01*
X154710000Y-62047380D01*
X155662380Y-61761666D02*
X156138571Y-61761666D01*
X155567142Y-62047380D02*
X155900476Y-61047380D01*
X156233809Y-62047380D01*
X156424285Y-61047380D02*
X156995714Y-61047380D01*
X156710000Y-62047380D02*
X156710000Y-61047380D01*
X157281428Y-61761666D02*
X157757619Y-61761666D01*
X157186190Y-62047380D02*
X157519523Y-61047380D01*
X157852857Y-62047380D01*
X155575095Y-58555000D02*
X155479857Y-58507380D01*
X155337000Y-58507380D01*
X155194142Y-58555000D01*
X155098904Y-58650238D01*
X155051285Y-58745476D01*
X155003666Y-58935952D01*
X155003666Y-59078809D01*
X155051285Y-59269285D01*
X155098904Y-59364523D01*
X155194142Y-59459761D01*
X155337000Y-59507380D01*
X155432238Y-59507380D01*
X155575095Y-59459761D01*
X155622714Y-59412142D01*
X155622714Y-59078809D01*
X155432238Y-59078809D01*
X156051285Y-59507380D02*
X156051285Y-58507380D01*
X156622714Y-59507380D01*
X156622714Y-58507380D01*
X157098904Y-59507380D02*
X157098904Y-58507380D01*
X157337000Y-58507380D01*
X157479857Y-58555000D01*
X157575095Y-58650238D01*
X157622714Y-58745476D01*
X157670333Y-58935952D01*
X157670333Y-59078809D01*
X157622714Y-59269285D01*
X157575095Y-59364523D01*
X157479857Y-59459761D01*
X157337000Y-59507380D01*
X157098904Y-59507380D01*
G04 #@! TO.C,J5*
X128571666Y-66762380D02*
X128571666Y-67476666D01*
X128524047Y-67619523D01*
X128428809Y-67714761D01*
X128285952Y-67762380D01*
X128190714Y-67762380D01*
X129524047Y-66762380D02*
X129047857Y-66762380D01*
X129000238Y-67238571D01*
X129047857Y-67190952D01*
X129143095Y-67143333D01*
X129381190Y-67143333D01*
X129476428Y-67190952D01*
X129524047Y-67238571D01*
X129571666Y-67333809D01*
X129571666Y-67571904D01*
X129524047Y-67667142D01*
X129476428Y-67714761D01*
X129381190Y-67762380D01*
X129143095Y-67762380D01*
X129047857Y-67714761D01*
X129000238Y-67667142D01*
X131191095Y-63635000D02*
X131095857Y-63587380D01*
X130953000Y-63587380D01*
X130810142Y-63635000D01*
X130714904Y-63730238D01*
X130667285Y-63825476D01*
X130619666Y-64015952D01*
X130619666Y-64158809D01*
X130667285Y-64349285D01*
X130714904Y-64444523D01*
X130810142Y-64539761D01*
X130953000Y-64587380D01*
X131048238Y-64587380D01*
X131191095Y-64539761D01*
X131238714Y-64492142D01*
X131238714Y-64158809D01*
X131048238Y-64158809D01*
X131667285Y-64587380D02*
X131667285Y-63587380D01*
X132238714Y-64587380D01*
X132238714Y-63587380D01*
X132714904Y-64587380D02*
X132714904Y-63587380D01*
X132953000Y-63587380D01*
X133095857Y-63635000D01*
X133191095Y-63730238D01*
X133238714Y-63825476D01*
X133286333Y-64015952D01*
X133286333Y-64158809D01*
X133238714Y-64349285D01*
X133191095Y-64444523D01*
X133095857Y-64539761D01*
X132953000Y-64587380D01*
X132714904Y-64587380D01*
X130580000Y-62047380D02*
X130580000Y-61047380D01*
X130818095Y-61047380D01*
X130960952Y-61095000D01*
X131056190Y-61190238D01*
X131103809Y-61285476D01*
X131151428Y-61475952D01*
X131151428Y-61618809D01*
X131103809Y-61809285D01*
X131056190Y-61904523D01*
X130960952Y-61999761D01*
X130818095Y-62047380D01*
X130580000Y-62047380D01*
X131532380Y-61761666D02*
X132008571Y-61761666D01*
X131437142Y-62047380D02*
X131770476Y-61047380D01*
X132103809Y-62047380D01*
X132294285Y-61047380D02*
X132865714Y-61047380D01*
X132580000Y-62047380D02*
X132580000Y-61047380D01*
X133151428Y-61761666D02*
X133627619Y-61761666D01*
X133056190Y-62047380D02*
X133389523Y-61047380D01*
X133722857Y-62047380D01*
X131254523Y-58507380D02*
X130778333Y-58507380D01*
X130730714Y-58983571D01*
X130778333Y-58935952D01*
X130873571Y-58888333D01*
X131111666Y-58888333D01*
X131206904Y-58935952D01*
X131254523Y-58983571D01*
X131302142Y-59078809D01*
X131302142Y-59316904D01*
X131254523Y-59412142D01*
X131206904Y-59459761D01*
X131111666Y-59507380D01*
X130873571Y-59507380D01*
X130778333Y-59459761D01*
X130730714Y-59412142D01*
X131587857Y-58507380D02*
X131921190Y-59507380D01*
X132254523Y-58507380D01*
G04 #@! TO.C,J6*
X127936666Y-92162380D02*
X127936666Y-92876666D01*
X127889047Y-93019523D01*
X127793809Y-93114761D01*
X127650952Y-93162380D01*
X127555714Y-93162380D01*
X128841428Y-92162380D02*
X128650952Y-92162380D01*
X128555714Y-92210000D01*
X128508095Y-92257619D01*
X128412857Y-92400476D01*
X128365238Y-92590952D01*
X128365238Y-92971904D01*
X128412857Y-93067142D01*
X128460476Y-93114761D01*
X128555714Y-93162380D01*
X128746190Y-93162380D01*
X128841428Y-93114761D01*
X128889047Y-93067142D01*
X128936666Y-92971904D01*
X128936666Y-92733809D01*
X128889047Y-92638571D01*
X128841428Y-92590952D01*
X128746190Y-92543333D01*
X128555714Y-92543333D01*
X128460476Y-92590952D01*
X128412857Y-92638571D01*
X128365238Y-92733809D01*
X131254523Y-95337380D02*
X130778333Y-95337380D01*
X130730714Y-95813571D01*
X130778333Y-95765952D01*
X130873571Y-95718333D01*
X131111666Y-95718333D01*
X131206904Y-95765952D01*
X131254523Y-95813571D01*
X131302142Y-95908809D01*
X131302142Y-96146904D01*
X131254523Y-96242142D01*
X131206904Y-96289761D01*
X131111666Y-96337380D01*
X130873571Y-96337380D01*
X130778333Y-96289761D01*
X130730714Y-96242142D01*
X131587857Y-95337380D02*
X131921190Y-96337380D01*
X132254523Y-95337380D01*
X130580000Y-98877380D02*
X130580000Y-97877380D01*
X130818095Y-97877380D01*
X130960952Y-97925000D01*
X131056190Y-98020238D01*
X131103809Y-98115476D01*
X131151428Y-98305952D01*
X131151428Y-98448809D01*
X131103809Y-98639285D01*
X131056190Y-98734523D01*
X130960952Y-98829761D01*
X130818095Y-98877380D01*
X130580000Y-98877380D01*
X131532380Y-98591666D02*
X132008571Y-98591666D01*
X131437142Y-98877380D02*
X131770476Y-97877380D01*
X132103809Y-98877380D01*
X132294285Y-97877380D02*
X132865714Y-97877380D01*
X132580000Y-98877380D02*
X132580000Y-97877380D01*
X133151428Y-98591666D02*
X133627619Y-98591666D01*
X133056190Y-98877380D02*
X133389523Y-97877380D01*
X133722857Y-98877380D01*
X131191095Y-100465000D02*
X131095857Y-100417380D01*
X130953000Y-100417380D01*
X130810142Y-100465000D01*
X130714904Y-100560238D01*
X130667285Y-100655476D01*
X130619666Y-100845952D01*
X130619666Y-100988809D01*
X130667285Y-101179285D01*
X130714904Y-101274523D01*
X130810142Y-101369761D01*
X130953000Y-101417380D01*
X131048238Y-101417380D01*
X131191095Y-101369761D01*
X131238714Y-101322142D01*
X131238714Y-100988809D01*
X131048238Y-100988809D01*
X131667285Y-101417380D02*
X131667285Y-100417380D01*
X132238714Y-101417380D01*
X132238714Y-100417380D01*
X132714904Y-101417380D02*
X132714904Y-100417380D01*
X132953000Y-100417380D01*
X133095857Y-100465000D01*
X133191095Y-100560238D01*
X133238714Y-100655476D01*
X133286333Y-100845952D01*
X133286333Y-100988809D01*
X133238714Y-101179285D01*
X133191095Y-101274523D01*
X133095857Y-101369761D01*
X132953000Y-101417380D01*
X132714904Y-101417380D01*
G04 #@! TO.C,J2*
X156511666Y-86872380D02*
X156511666Y-87586666D01*
X156464047Y-87729523D01*
X156368809Y-87824761D01*
X156225952Y-87872380D01*
X156130714Y-87872380D01*
X156940238Y-86967619D02*
X156987857Y-86920000D01*
X157083095Y-86872380D01*
X157321190Y-86872380D01*
X157416428Y-86920000D01*
X157464047Y-86967619D01*
X157511666Y-87062857D01*
X157511666Y-87158095D01*
X157464047Y-87300952D01*
X156892619Y-87872380D01*
X157511666Y-87872380D01*
G04 #@! TO.C,J1*
X143851380Y-80851333D02*
X144565666Y-80851333D01*
X144708523Y-80898952D01*
X144803761Y-80994190D01*
X144851380Y-81137047D01*
X144851380Y-81232285D01*
X144851380Y-79851333D02*
X144851380Y-80422761D01*
X144851380Y-80137047D02*
X143851380Y-80137047D01*
X143994238Y-80232285D01*
X144089476Y-80327523D01*
X144137095Y-80422761D01*
G04 #@! TO.C,J8*
X141271666Y-95337380D02*
X141271666Y-96051666D01*
X141224047Y-96194523D01*
X141128809Y-96289761D01*
X140985952Y-96337380D01*
X140890714Y-96337380D01*
X141890714Y-95765952D02*
X141795476Y-95718333D01*
X141747857Y-95670714D01*
X141700238Y-95575476D01*
X141700238Y-95527857D01*
X141747857Y-95432619D01*
X141795476Y-95385000D01*
X141890714Y-95337380D01*
X142081190Y-95337380D01*
X142176428Y-95385000D01*
X142224047Y-95432619D01*
X142271666Y-95527857D01*
X142271666Y-95575476D01*
X142224047Y-95670714D01*
X142176428Y-95718333D01*
X142081190Y-95765952D01*
X141890714Y-95765952D01*
X141795476Y-95813571D01*
X141747857Y-95861190D01*
X141700238Y-95956428D01*
X141700238Y-96146904D01*
X141747857Y-96242142D01*
X141795476Y-96289761D01*
X141890714Y-96337380D01*
X142081190Y-96337380D01*
X142176428Y-96289761D01*
X142224047Y-96242142D01*
X142271666Y-96146904D01*
X142271666Y-95956428D01*
X142224047Y-95861190D01*
X142176428Y-95813571D01*
X142081190Y-95765952D01*
G04 #@! TO.C,C2*
X154408142Y-85764666D02*
X154455761Y-85812285D01*
X154503380Y-85955142D01*
X154503380Y-86050380D01*
X154455761Y-86193238D01*
X154360523Y-86288476D01*
X154265285Y-86336095D01*
X154074809Y-86383714D01*
X153931952Y-86383714D01*
X153741476Y-86336095D01*
X153646238Y-86288476D01*
X153551000Y-86193238D01*
X153503380Y-86050380D01*
X153503380Y-85955142D01*
X153551000Y-85812285D01*
X153598619Y-85764666D01*
X153598619Y-85383714D02*
X153551000Y-85336095D01*
X153503380Y-85240857D01*
X153503380Y-85002761D01*
X153551000Y-84907523D01*
X153598619Y-84859904D01*
X153693857Y-84812285D01*
X153789095Y-84812285D01*
X153931952Y-84859904D01*
X154503380Y-85431333D01*
X154503380Y-84812285D01*
G04 #@! TO.C,C3*
X146153142Y-85764666D02*
X146200761Y-85812285D01*
X146248380Y-85955142D01*
X146248380Y-86050380D01*
X146200761Y-86193238D01*
X146105523Y-86288476D01*
X146010285Y-86336095D01*
X145819809Y-86383714D01*
X145676952Y-86383714D01*
X145486476Y-86336095D01*
X145391238Y-86288476D01*
X145296000Y-86193238D01*
X145248380Y-86050380D01*
X145248380Y-85955142D01*
X145296000Y-85812285D01*
X145343619Y-85764666D01*
X145248380Y-85431333D02*
X145248380Y-84812285D01*
X145629333Y-85145619D01*
X145629333Y-85002761D01*
X145676952Y-84907523D01*
X145724571Y-84859904D01*
X145819809Y-84812285D01*
X146057904Y-84812285D01*
X146153142Y-84859904D01*
X146200761Y-84907523D01*
X146248380Y-85002761D01*
X146248380Y-85288476D01*
X146200761Y-85383714D01*
X146153142Y-85431333D01*
G04 #@! TO.C,J7*
X148002666Y-67444380D02*
X148002666Y-68158666D01*
X147955047Y-68301523D01*
X147859809Y-68396761D01*
X147716952Y-68444380D01*
X147621714Y-68444380D01*
X148383619Y-67444380D02*
X149050285Y-67444380D01*
X148621714Y-68444380D01*
G04 #@! TO.C,D1*
X153693904Y-92527380D02*
X153693904Y-91527380D01*
X153932000Y-91527380D01*
X154074857Y-91575000D01*
X154170095Y-91670238D01*
X154217714Y-91765476D01*
X154265333Y-91955952D01*
X154265333Y-92098809D01*
X154217714Y-92289285D01*
X154170095Y-92384523D01*
X154074857Y-92479761D01*
X153932000Y-92527380D01*
X153693904Y-92527380D01*
X155217714Y-92527380D02*
X154646285Y-92527380D01*
X154932000Y-92527380D02*
X154932000Y-91527380D01*
X154836761Y-91670238D01*
X154741523Y-91765476D01*
X154646285Y-91813095D01*
G04 #@! TO.C,Q1*
X146589761Y-76707619D02*
X146494523Y-76660000D01*
X146399285Y-76564761D01*
X146256428Y-76421904D01*
X146161190Y-76374285D01*
X146065952Y-76374285D01*
X146113571Y-76612380D02*
X146018333Y-76564761D01*
X145923095Y-76469523D01*
X145875476Y-76279047D01*
X145875476Y-75945714D01*
X145923095Y-75755238D01*
X146018333Y-75660000D01*
X146113571Y-75612380D01*
X146304047Y-75612380D01*
X146399285Y-75660000D01*
X146494523Y-75755238D01*
X146542142Y-75945714D01*
X146542142Y-76279047D01*
X146494523Y-76469523D01*
X146399285Y-76564761D01*
X146304047Y-76612380D01*
X146113571Y-76612380D01*
X147494523Y-76612380D02*
X146923095Y-76612380D01*
X147208809Y-76612380D02*
X147208809Y-75612380D01*
X147113571Y-75755238D01*
X147018333Y-75850476D01*
X146923095Y-75898095D01*
G04 #@! TO.C,U1*
X149225095Y-84161380D02*
X149225095Y-84970904D01*
X149272714Y-85066142D01*
X149320333Y-85113761D01*
X149415571Y-85161380D01*
X149606047Y-85161380D01*
X149701285Y-85113761D01*
X149748904Y-85066142D01*
X149796523Y-84970904D01*
X149796523Y-84161380D01*
X150796523Y-85161380D02*
X150225095Y-85161380D01*
X150510809Y-85161380D02*
X150510809Y-84161380D01*
X150415571Y-84304238D01*
X150320333Y-84399476D01*
X150225095Y-84447095D01*
G04 #@! TO.C,R5*
X135723333Y-67382380D02*
X135390000Y-66906190D01*
X135151904Y-67382380D02*
X135151904Y-66382380D01*
X135532857Y-66382380D01*
X135628095Y-66430000D01*
X135675714Y-66477619D01*
X135723333Y-66572857D01*
X135723333Y-66715714D01*
X135675714Y-66810952D01*
X135628095Y-66858571D01*
X135532857Y-66906190D01*
X135151904Y-66906190D01*
X136628095Y-66382380D02*
X136151904Y-66382380D01*
X136104285Y-66858571D01*
X136151904Y-66810952D01*
X136247142Y-66763333D01*
X136485238Y-66763333D01*
X136580476Y-66810952D01*
X136628095Y-66858571D01*
X136675714Y-66953809D01*
X136675714Y-67191904D01*
X136628095Y-67287142D01*
X136580476Y-67334761D01*
X136485238Y-67382380D01*
X136247142Y-67382380D01*
X136151904Y-67334761D01*
X136104285Y-67287142D01*
G04 #@! TO.C,R1*
X154884380Y-75350666D02*
X154408190Y-75684000D01*
X154884380Y-75922095D02*
X153884380Y-75922095D01*
X153884380Y-75541142D01*
X153932000Y-75445904D01*
X153979619Y-75398285D01*
X154074857Y-75350666D01*
X154217714Y-75350666D01*
X154312952Y-75398285D01*
X154360571Y-75445904D01*
X154408190Y-75541142D01*
X154408190Y-75922095D01*
X154884380Y-74398285D02*
X154884380Y-74969714D01*
X154884380Y-74684000D02*
X153884380Y-74684000D01*
X154027238Y-74779238D01*
X154122476Y-74874476D01*
X154170095Y-74969714D01*
G04 #@! TO.C,R2*
X154884380Y-71667666D02*
X154408190Y-72001000D01*
X154884380Y-72239095D02*
X153884380Y-72239095D01*
X153884380Y-71858142D01*
X153932000Y-71762904D01*
X153979619Y-71715285D01*
X154074857Y-71667666D01*
X154217714Y-71667666D01*
X154312952Y-71715285D01*
X154360571Y-71762904D01*
X154408190Y-71858142D01*
X154408190Y-72239095D01*
X153979619Y-71286714D02*
X153932000Y-71239095D01*
X153884380Y-71143857D01*
X153884380Y-70905761D01*
X153932000Y-70810523D01*
X153979619Y-70762904D01*
X154074857Y-70715285D01*
X154170095Y-70715285D01*
X154312952Y-70762904D01*
X154884380Y-71334333D01*
X154884380Y-70715285D01*
G04 #@! TO.C,R3*
X140803333Y-67382380D02*
X140470000Y-66906190D01*
X140231904Y-67382380D02*
X140231904Y-66382380D01*
X140612857Y-66382380D01*
X140708095Y-66430000D01*
X140755714Y-66477619D01*
X140803333Y-66572857D01*
X140803333Y-66715714D01*
X140755714Y-66810952D01*
X140708095Y-66858571D01*
X140612857Y-66906190D01*
X140231904Y-66906190D01*
X141136666Y-66382380D02*
X141755714Y-66382380D01*
X141422380Y-66763333D01*
X141565238Y-66763333D01*
X141660476Y-66810952D01*
X141708095Y-66858571D01*
X141755714Y-66953809D01*
X141755714Y-67191904D01*
X141708095Y-67287142D01*
X141660476Y-67334761D01*
X141565238Y-67382380D01*
X141279523Y-67382380D01*
X141184285Y-67334761D01*
X141136666Y-67287142D01*
G04 #@! TO.C,R4*
X138263333Y-93670380D02*
X137930000Y-93194190D01*
X137691904Y-93670380D02*
X137691904Y-92670380D01*
X138072857Y-92670380D01*
X138168095Y-92718000D01*
X138215714Y-92765619D01*
X138263333Y-92860857D01*
X138263333Y-93003714D01*
X138215714Y-93098952D01*
X138168095Y-93146571D01*
X138072857Y-93194190D01*
X137691904Y-93194190D01*
X139120476Y-93003714D02*
X139120476Y-93670380D01*
X138882380Y-92622761D02*
X138644285Y-93337047D01*
X139263333Y-93337047D01*
G04 #@! TD*
M02*
